<svg width="28" height="29" viewBox="0 0 28 29" fill="none" xmlns="http://www.w3.org/2000/svg">
<path d="M8.40055 13.6586C7.93663 13.6586 7.56055 14.0347 7.56055 14.4986C7.56055 14.9625 7.93663 15.3386 8.40055 15.3386V13.6586ZM14.0005 15.3386C14.4645 15.3386 14.8405 14.9625 14.8405 14.4986C14.8405 14.0347 14.4645 13.6586 14.0005 13.6586V15.3386ZM14.0005 13.6586C13.5366 13.6586 13.1605 14.0347 13.1605 14.4986C13.1605 14.9625 13.5366 15.3386 14.0005 15.3386V13.6586ZM19.6005 15.3386C20.0645 15.3386 20.4405 14.9625 20.4405 14.4986C20.4405 14.0347 20.0645 13.6586 19.6005 13.6586V15.3386ZM14.8405 14.4986C14.8405 14.0347 14.4645 13.6586 14.0005 13.6586C13.5366 13.6586 13.1605 14.0347 13.1605 14.4986H14.8405ZM13.1605 20.0986C13.1605 20.5625 13.5366 20.9386 14.0005 20.9386C14.4645 20.9386 14.8405 20.5625 14.8405 20.0986H13.1605ZM13.1605 14.4986C13.1605 14.9625 13.5366 15.3386 14.0005 15.3386C14.4645 15.3386 14.8405 14.9625 14.8405 14.4986H13.1605ZM14.8405 8.89859C14.8405 8.43468 14.4645 8.05859 14.0005 8.05859C13.5366 8.05859 13.1605 8.43468 13.1605 8.89859H14.8405ZM8.40055 15.3386H14.0005V13.6586H8.40055V15.3386ZM14.0005 15.3386H19.6005V13.6586H14.0005V15.3386ZM14.0005 14.4986H13.1605V14.4997C13.1605 14.4998 13.1605 14.5011 13.1605 14.5011C13.1605 14.5009 13.1605 14.5012 13.1605 14.5011C13.1605 14.5011 13.1605 14.5023 13.1605 14.5024C13.1605 14.5023 13.1605 14.5025 13.1605 14.5024C13.1605 14.5025 13.1605 14.5034 13.1605 14.5035C13.1605 14.5036 13.1605 14.5046 13.1605 14.5048C13.1605 14.5049 13.1605 14.5058 13.1605 14.5059C13.1605 14.506 13.1605 14.507 13.1605 14.5072C13.1605 14.5073 13.1605 14.5083 13.1605 14.5086C13.1605 14.5087 13.1605 14.5099 13.1605 14.51C13.1605 14.5098 13.1605 14.5102 13.1605 14.51C13.1605 14.5102 13.1605 14.5109 13.1605 14.5111C13.1605 14.5109 13.1605 14.5114 13.1605 14.5111C13.1605 14.5114 13.1605 14.5121 13.1605 14.5123C13.1605 14.512 13.1605 14.5125 13.1605 14.5123C13.1605 14.5125 13.1605 14.5133 13.1605 14.5135C13.1605 14.5133 13.1605 14.5137 13.1605 14.5135C13.1605 14.5137 13.1605 14.5146 13.1605 14.5148C13.1605 14.5146 13.1605 14.5151 13.1605 14.5148C13.1605 14.5151 13.1605 14.516 13.1605 14.5162C13.1605 14.5158 13.1605 14.5164 13.1605 14.5162C13.1605 14.5164 13.1605 14.5174 13.1605 14.5176C13.1605 14.5174 13.1605 14.5179 13.1605 14.5176C13.1605 14.5179 13.1605 14.5189 13.1605 14.5192C13.1605 14.5189 13.1605 14.5194 13.1605 14.5192C13.1605 14.5194 13.1605 14.5205 13.1605 14.5208C13.1605 14.5205 13.1605 14.521 13.1605 14.5208C13.1605 14.5211 13.1605 14.5221 13.1605 14.5224C13.1605 14.5221 13.1605 14.5228 13.1605 14.5224C13.1605 14.5227 13.1605 14.5239 13.1605 14.5242C13.1605 14.5239 13.1605 14.5245 13.1605 14.5242C13.1605 14.5246 13.1605 14.5257 13.1605 14.526C13.1605 14.5257 13.1605 14.5264 13.1605 14.526C13.1605 14.5264 13.1605 14.5277 13.1605 14.5281C13.1605 14.5277 13.1605 14.5284 13.1605 14.5281C13.1605 14.5284 13.1605 14.5297 13.1605 14.5301C13.1605 14.5297 13.1605 14.5304 13.1605 14.5301C13.1605 14.5304 13.1605 14.5317 13.1605 14.5322C13.1605 14.5319 13.1605 14.5325 13.1605 14.5322C13.1605 14.5326 13.1605 14.534 13.1605 14.5343C13.1605 14.5348 13.1605 14.5351 13.1605 14.5356C13.1605 14.5359 13.1605 14.5362 13.1605 14.5367C13.1605 14.5371 13.1605 14.5375 13.1605 14.5379C13.1605 14.5382 13.1605 14.5387 13.1605 14.539C13.1605 14.5395 13.1605 14.5399 13.1605 14.5404C13.1605 14.5407 13.1605 14.5412 13.1605 14.5416C13.1605 14.542 13.1605 14.5424 13.1605 14.5428C13.1605 14.5433 13.1605 14.5437 13.1605 14.5442C13.1605 14.5446 13.1605 14.5451 13.1605 14.5455C13.1605 14.546 13.1605 14.5464 13.1605 14.5469C13.1605 14.5473 13.1605 14.5479 13.1605 14.5483C13.1605 14.5488 13.1605 14.5492 13.1605 14.5497C13.1605 14.5502 13.1605 14.5507 13.1605 14.5511C13.1605 14.5517 13.1605 14.5521 13.1605 14.5526C13.1605 14.5531 13.1605 14.5536 13.1605 14.5541C13.1605 14.5546 13.1605 14.5552 13.1605 14.5556C13.1605 14.5562 13.1605 14.5567 13.1605 14.5572C13.1605 14.5577 13.1605 14.5583 13.1605 14.5588C13.1605 14.5593 13.1605 14.5599 13.1605 14.5604C13.1605 14.561 13.1605 14.5615 13.1605 14.5621C13.1605 14.5625 13.1605 14.5631 13.1605 14.5637C13.1605 14.5642 13.1605 14.5649 13.1605 14.5655C13.1605 14.566 13.1605 14.5666 13.1605 14.5671C13.1605 14.5677 13.1605 14.5683 13.1605 14.5689C13.1605 14.5695 13.1605 14.57 13.1605 14.5707C13.1605 14.5713 13.1605 14.572 13.1605 14.5725C13.1605 14.5731 13.1605 14.5737 13.1605 14.5743C13.1605 14.575 13.1605 14.5756 13.1605 14.5762C13.1605 14.5769 13.1605 14.5776 13.1605 14.5781C13.1605 14.5788 13.1605 14.5795 13.1605 14.5801C13.1605 14.5807 13.1605 14.5814 13.1605 14.582C13.1605 14.5827 13.1605 14.5834 13.1605 14.584C13.1605 14.5847 13.1605 14.5854 13.1605 14.5861C13.1605 14.5867 13.1605 14.5875 13.1605 14.5882C13.1605 14.5889 13.1605 14.5895 13.1605 14.5902C13.1605 14.591 13.1605 14.5917 13.1605 14.5923C13.1605 14.5931 13.1605 14.5938 13.1605 14.5946C13.1605 14.5952 13.1605 14.596 13.1605 14.5967C13.1605 14.5975 13.1605 14.5983 13.1605 14.5989C13.1605 14.5997 13.1605 14.6005 13.1605 14.6013C13.1605 14.602 13.1605 14.6028 13.1605 14.6035C13.1605 14.6043 13.1605 14.6051 13.1605 14.6059C13.1605 14.6067 13.1605 14.6075 13.1605 14.6082C13.1605 14.609 13.1605 14.6098 13.1605 14.6106C13.1605 14.6115 13.1605 14.6123 13.1605 14.6131C13.1605 14.614 13.1605 14.6147 13.1605 14.6155C13.1605 14.6164 13.1605 14.6172 13.1605 14.6181C13.1605 14.6189 13.1605 14.6198 13.1605 14.6206C13.1605 14.6215 13.1605 14.6224 13.1605 14.6231C13.1605 14.624 13.1605 14.6249 13.1605 14.6258C13.1605 14.6267 13.1605 14.6275 13.1605 14.6284C13.1605 14.6293 13.1605 14.6302 13.1605 14.6311C13.1605 14.632 13.1605 14.633 13.1605 14.6339C13.1605 14.6348 13.1605 14.6357 13.1605 14.6366C13.1605 14.6376 13.1605 14.6385 13.1605 14.6394C13.1605 14.6404 13.1605 14.6413 13.1605 14.6423C13.1605 14.6432 13.1605 14.6442 13.1605 14.6451C13.1605 14.6461 13.1605 14.6471 13.1605 14.648C13.1605 14.649 13.1605 14.65 13.1605 14.651C13.1605 14.6519 13.1605 14.6529 13.1605 14.6539C13.1605 14.6549 13.1605 14.656 13.1605 14.657C13.1605 14.658 13.1605 14.659 13.1605 14.6601C13.1605 14.6611 13.1605 14.6621 13.1605 14.6631C13.1605 14.6642 13.1605 14.6652 13.1605 14.6663C13.1605 14.6674 13.1605 14.6684 13.1605 14.6695C13.1605 14.6705 13.1605 14.6716 13.1605 14.6728C13.1605 14.6738 13.1605 14.6749 13.1605 14.676C13.1605 14.6771 13.1605 14.6781 13.1605 14.6792C13.1605 14.6804 13.1605 14.6815 13.1605 14.6826C13.1605 14.6837 13.1605 14.6849 13.1605 14.686C13.1605 14.6872 13.1605 14.6883 13.1605 14.6894C13.1605 14.6906 13.1605 14.6918 13.1605 14.6929C13.1605 14.694 13.1605 14.6953 13.1605 14.6964C13.1605 14.6976 13.1605 14.6987 13.1605 14.7C13.1605 14.7012 13.1605 14.7023 13.1605 14.7036C13.1605 14.7048 13.1605 14.706 13.1605 14.7073C13.1605 14.7085 13.1605 14.7097 13.1605 14.7109C13.1605 14.7122 13.1605 14.7134 13.1605 14.7146C13.1605 14.7159 13.1605 14.7171 13.1605 14.7183C13.1605 14.7197 13.1605 14.7209 13.1605 14.7223C13.1605 14.7235 13.1605 14.7247 13.1605 14.7261C13.1605 14.7273 13.1605 14.7286 13.1605 14.73C13.1605 14.7312 13.1605 14.7326 13.1605 14.7339C13.1605 14.7352 13.1605 14.7366 13.1605 14.7379C13.1605 14.7393 13.1605 14.7406 13.1605 14.742C13.1605 14.7433 13.1605 14.7447 13.1605 14.746C13.1605 14.7473 13.1605 14.7487 13.1605 14.7501C13.1605 14.7515 13.1605 14.7529 13.1605 14.7543C13.1605 14.7557 13.1605 14.7571 13.1605 14.7585C13.1605 14.7599 13.1605 14.7613 13.1605 14.7628C13.1605 14.7641 13.1605 14.7656 13.1605 14.7671C13.1605 14.7685 13.1605 14.77 13.1605 14.7714C13.1605 14.7729 13.1605 14.7743 13.1605 14.7758C13.1605 14.7773 13.1605 14.7788 13.1605 14.7803C13.1605 14.7817 13.1605 14.7833 13.1605 14.7848C13.1605 14.7863 13.1605 14.7878 13.1605 14.7893C13.1605 14.7908 13.1605 14.7924 13.1605 14.7939C13.1605 14.7954 13.1605 14.797 13.1605 14.7985C13.1605 14.8001 13.1605 14.8017 13.1605 14.8032C13.1605 14.8048 13.1605 14.8064 13.1605 14.8079C13.1605 14.8095 13.1605 14.8112 13.1605 14.8128C13.1605 14.8143 13.1605 14.816 13.1605 14.8176C13.1605 14.8192 13.1605 14.8208 13.1605 14.8225C13.1605 14.8241 13.1605 14.8257 13.1605 14.8274C13.1605 14.8291 13.1605 14.8307 13.1605 14.8324C13.1605 14.834 13.1605 14.8357 13.1605 14.8374C13.1605 14.8391 13.1605 14.8408 13.1605 14.8425C13.1605 14.8442 13.1605 14.8459 13.1605 14.8476C13.1605 14.8494 13.1605 14.8511 13.1605 14.8529C13.1605 14.8545 13.1605 14.8563 13.1605 14.858C13.1605 14.8598 13.1605 14.8616 13.1605 14.8634C13.1605 14.8651 13.1605 14.8669 13.1605 14.8686C13.1605 14.8704 13.1605 14.8722 13.1605 14.874C13.1605 14.8758 13.1605 14.8777 13.1605 14.8795C13.1605 14.8813 13.1605 14.8832 13.1605 14.885C13.1605 14.8868 13.1605 14.8887 13.1605 14.8906C13.1605 14.8924 13.1605 14.8943 13.1605 14.8962C13.1605 14.898 13.1605 14.8999 13.1605 14.9018C13.1605 14.9037 13.1605 14.9056 13.1605 14.9075C13.1605 14.9094 13.1605 14.9113 13.1605 14.9132C13.1605 14.9152 13.1605 14.9171 13.1605 14.919C13.1605 14.9211 13.1605 14.923 13.1605 14.925C13.1605 14.9269 13.1605 14.9289 13.1605 14.9308C13.1605 14.9328 13.1605 14.9348 13.1605 14.9369C13.1605 14.9389 13.1605 14.9409 13.1605 14.9429C13.1605 14.9449 13.1605 14.9469 13.1605 14.9489C13.1605 14.951 13.1605 14.953 13.1605 14.9551C13.1605 14.9571 13.1605 14.9592 13.1605 14.9613C13.1605 14.9634 13.1605 14.9654 13.1605 14.9675C13.1605 14.9697 13.1605 14.9717 13.1605 14.9738C13.1605 14.9759 13.1605 14.9781 13.1605 14.9802C13.1605 14.9823 13.1605 14.9844 13.1605 14.9867C13.1605 14.9888 13.1605 14.9909 13.1605 14.9931C13.1605 14.9953 13.1605 14.9974 13.1605 14.9997C13.1605 15.0018 13.1605 15.0041 13.1605 15.0063C13.1605 15.0084 13.1605 15.0107 13.1605 15.0129C13.1605 15.0151 13.1605 15.0174 13.1605 15.0196C13.1605 15.0219 13.1605 15.0241 13.1605 15.0263C13.1605 15.0286 13.1605 15.0309 13.1605 15.0332C13.1605 15.0355 13.1605 15.0378 13.1605 15.0401C13.1605 15.0424 13.1605 15.0447 13.1605 15.0471C13.1605 15.0493 13.1605 15.0517 13.1605 15.054C13.1605 15.0564 13.1605 15.0587 13.1605 15.0611C13.1605 15.0634 13.1605 15.0658 13.1605 15.0682C13.1605 15.0706 13.1605 15.0729 13.1605 15.0754C13.1605 15.0777 13.1605 15.0802 13.1605 15.0826C13.1605 15.085 13.1605 15.0875 13.1605 15.09C13.1605 15.0923 13.1605 15.0948 13.1605 15.0972C13.1605 15.0997 13.1605 15.1022 13.1605 15.1047C13.1605 15.1072 13.1605 15.1097 13.1605 15.1121C13.1605 15.1147 13.1605 15.1172 13.1605 15.1197C13.1605 15.1222 13.1605 15.1248 13.1605 15.1274C13.1605 15.1298 13.1605 15.1324 13.1605 15.135C13.1605 15.1376 13.1605 15.1401 13.1605 15.1427C13.1605 15.1453 13.1605 15.1479 13.1605 15.1505C13.1605 15.1531 13.1605 15.1557 13.1605 15.1584C13.1605 15.161 13.1605 15.1636 13.1605 15.1663C13.1605 15.1689 13.1605 15.1716 13.1605 15.1743C13.1605 15.177 13.1605 15.1797 13.1605 15.1824C13.1605 15.185 13.1605 15.1877 13.1605 15.1904C13.1605 15.1931 13.1605 15.1959 13.1605 15.1986C13.1605 15.2013 13.1605 15.2041 13.1605 15.2069C13.1605 15.2096 13.1605 15.2124 13.1605 15.2152C13.1605 15.2179 13.1605 15.2207 13.1605 15.2235C13.1605 15.2263 13.1605 15.2291 13.1605 15.232C13.1605 15.2348 13.1605 15.2376 13.1605 15.2404C13.1605 15.2433 13.1605 15.2461 13.1605 15.249C13.1605 15.2518 13.1605 15.2547 13.1605 15.2576C13.1605 15.2605 13.1605 15.2633 13.1605 15.2662C13.1605 15.2692 13.1605 15.2721 13.1605 15.2751C13.1605 15.278 13.1605 15.2809 13.1605 15.2838C13.1605 15.2868 13.1605 15.2898 13.1605 15.2928C13.1605 15.2957 13.1605 15.2987 13.1605 15.3017C13.1605 15.3048 13.1605 15.3077 13.1605 15.3107C13.1605 15.3137 13.1605 15.3168 13.1605 15.3198C13.1605 15.3229 13.1605 15.3259 13.1605 15.329C13.1605 15.3321 13.1605 15.3351 13.1605 15.3383C13.1605 15.3413 13.1605 15.3444 13.1605 15.3476C13.1605 15.3506 13.1605 15.3537 13.1605 15.3569C13.1605 15.36 13.1605 15.3631 13.1605 15.3663C13.1605 15.3695 13.1605 15.3726 13.1605 15.3758C13.1605 15.379 13.1605 15.3822 13.1605 15.3854C13.1605 15.3885 13.1605 15.3918 13.1605 15.395C13.1605 15.3983 13.1605 15.4014 13.1605 15.4047C13.1605 15.4079 13.1605 15.4113 13.1605 15.4145C13.1605 15.4178 13.1605 15.421 13.1605 15.4244C13.1605 15.4276 13.1605 15.431 13.1605 15.4342C13.1605 15.4376 13.1605 15.441 13.1605 15.4442C13.1605 15.4476 13.1605 15.4509 13.1605 15.4543C13.1605 15.4576 13.1605 15.461 13.1605 15.4645C13.1605 15.4678 13.1605 15.4712 13.1605 15.4747C13.1605 15.478 13.1605 15.4815 13.1605 15.485C13.1605 15.4883 13.1605 15.4918 13.1605 15.4953C13.1605 15.4988 13.1605 15.5022 13.1605 15.5057C13.1605 15.5092 13.1605 15.5126 13.1605 15.5162C13.1605 15.5197 13.1605 15.5232 13.1605 15.5268C13.1605 15.5302 13.1605 15.5338 13.1605 15.5374C13.1605 15.541 13.1605 15.5446 13.1605 15.5481C13.1605 15.5516 13.1605 15.5553 13.1605 15.5589C13.1605 15.5625 13.1605 15.5661 13.1605 15.5698C13.1605 15.5733 13.1605 15.577 13.1605 15.5806C13.1605 15.5843 13.1605 15.588 13.1605 15.5917C13.1605 15.5953 13.1605 15.599 13.1605 15.6027C13.1605 15.6065 13.1605 15.6102 13.1605 15.6139C13.1605 15.6176 13.1605 15.6214 13.1605 15.6251C13.1605 15.6289 13.1605 15.6326 13.1605 15.6364C13.1605 15.6402 13.1605 15.644 13.1605 15.6478C13.1605 15.6516 13.1605 15.6554 13.1605 15.6592C13.1605 15.6631 13.1605 15.667 13.1605 15.6708C13.1605 15.6746 13.1605 15.6785 13.1605 15.6824C13.1605 15.6862 13.1605 15.6902 13.1605 15.6941C13.1605 15.698 13.1605 15.7019 13.1605 15.7058C13.1605 15.7098 13.1605 15.7137 13.1605 15.7177C13.1605 15.7216 13.1605 15.7256 13.1605 15.7296C13.1605 15.7336 13.1605 15.7375 13.1605 15.7416C13.1605 15.7456 13.1605 15.7496 13.1605 15.7537C13.1605 15.7577 13.1605 15.7617 13.1605 15.7658C13.1605 15.7698 13.1605 15.7739 13.1605 15.778C13.1605 15.7821 13.1605 15.7861 13.1605 15.7903C13.1605 15.7944 13.1605 15.7986 13.1605 15.8027C13.1605 15.8069 13.1605 15.811 13.1605 15.8152C13.1605 15.8193 13.1605 15.8234 13.1605 15.8277C13.1605 15.8318 13.1605 15.8361 13.1605 15.8404C13.1605 15.8445 13.1605 15.8488 13.1605 15.853C13.1605 15.8573 13.1605 15.8615 13.1605 15.8658C13.1605 15.87 13.1605 15.8743 13.1605 15.8787C13.1605 15.8829 13.1605 15.8873 13.1605 15.8915C13.1605 15.8959 13.1605 15.9003 13.1605 15.9046C13.1605 15.9089 13.1605 15.9133 13.1605 15.9177C13.1605 15.9221 13.1605 15.9265 13.1605 15.9309C13.1605 15.9353 13.1605 15.9397 13.1605 15.9442C13.1605 15.9485 13.1605 15.953 13.1605 15.9575C13.1605 15.962 13.1605 15.9665 13.1605 15.9709C13.1605 15.9754 13.1605 15.9799 13.1605 15.9844C13.1605 15.989 13.1605 15.9935 13.1605 15.9981C13.1605 16.0025 13.1605 16.0071 13.1605 16.0117C13.1605 16.0162 13.1605 16.0208 13.1605 16.0254C13.1605 16.0301 13.1605 16.0347 13.1605 16.0393C13.1605 16.0439 13.1605 16.0486 13.1605 16.0532C13.1605 16.0579 13.1605 16.0626 13.1605 16.0672C13.1605 16.0719 13.1605 16.0766 13.1605 16.0813C13.1605 16.086 13.1605 16.0907 13.1605 16.0955C13.1605 16.1002 13.1605 16.1049 13.1605 16.1097C13.1605 16.1145 13.1605 16.1192 13.1605 16.124C13.1605 16.1289 13.1605 16.1337 13.1605 16.1385C13.1605 16.1433 13.1605 16.1481 13.1605 16.1529C13.1605 16.1579 13.1605 16.1627 13.1605 16.1676C13.1605 16.1724 13.1605 16.1774 13.1605 16.1823C13.1605 16.1872 13.1605 16.1921 13.1605 16.1971C13.1605 16.202 13.1605 16.2069 13.1605 16.2119C13.1605 16.2169 13.1605 16.2218 13.1605 16.2269C13.1605 16.2318 13.1605 16.2368 13.1605 16.2419C13.1605 16.2469 13.1605 16.252 13.1605 16.257C13.1605 16.262 13.1605 16.2671 13.1605 16.2722C13.1605 16.2773 13.1605 16.2824 13.1605 16.2875C13.1605 16.2926 13.1605 16.2978 13.1605 16.3028C13.1605 16.308 13.1605 16.3131 13.1605 16.3184C13.1605 16.3235 13.1605 16.3287 13.1605 16.3338C13.1605 16.3391 13.1605 16.3442 13.1605 16.3495C13.1605 16.3548 13.1605 16.36 13.1605 16.3653C13.1605 16.3705 13.1605 16.3758 13.1605 16.3811C13.1605 16.3864 13.1605 16.3916 13.1605 16.397C13.1605 16.4023 13.1605 16.4076 13.1605 16.413C13.1605 16.4183 13.1605 16.4236 13.1605 16.429C13.1605 16.4344 13.1605 16.4398 13.1605 16.4453C13.1605 16.4506 13.1605 16.456 13.1605 16.4615C13.1605 16.467 13.1605 16.4724 13.1605 16.4779C13.1605 16.4833 13.1605 16.4888 13.1605 16.4943C13.1605 16.4998 13.1605 16.5053 13.1605 16.5109C13.1605 16.5164 13.1605 16.5219 13.1605 16.5275C13.1605 16.5331 13.1605 16.5386 13.1605 16.5442C13.1605 16.5498 13.1605 16.5554 13.1605 16.561C13.1605 16.5667 13.1605 16.5723 13.1605 16.5779C13.1605 16.5836 13.1605 16.5892 13.1605 16.5949C13.1605 16.6006 13.1605 16.6063 13.1605 16.612C13.1605 16.6177 13.1605 16.6235 13.1605 16.6292C13.1605 16.6349 13.1605 16.6407 13.1605 16.6464C13.1605 16.6522 13.1605 16.6581 13.1605 16.6638C13.1605 16.6696 13.1605 16.6754 13.1605 16.6812C13.1605 16.6871 13.1605 16.693 13.1605 16.6988C13.1605 16.7047 13.1605 16.7106 13.1605 16.7165C13.1605 16.7224 13.1605 16.7283 13.1605 16.7342C13.1605 16.7402 13.1605 16.7461 13.1605 16.752C13.1605 16.7581 13.1605 16.764 13.1605 16.77C13.1605 16.776 13.1605 16.782 13.1605 16.788C13.1605 16.794 13.1605 16.8001 13.1605 16.8061C13.1605 16.8122 13.1605 16.8183 13.1605 16.8244C13.1605 16.8304 13.1605 16.8366 13.1605 16.8426C13.1605 16.8488 13.1605 16.855 13.1605 16.8611C13.1605 16.8673 13.1605 16.8734 13.1605 16.8796C13.1605 16.8858 13.1605 16.892 13.1605 16.8982C13.1605 16.9045 13.1605 16.9106 13.1605 16.9169C13.1605 16.9232 13.1605 16.9294 13.1605 16.9357C13.1605 16.942 13.1605 16.9483 13.1605 16.9546C13.1605 16.9609 13.1605 16.9672 13.1605 16.9736C13.1605 16.98 13.1605 16.9863 13.1605 16.9926C13.1605 16.999 13.1605 17.0055 13.1605 17.0119C13.1605 17.0183 13.1605 17.0246 13.1605 17.0311C13.1605 17.0375 13.1605 17.044 13.1605 17.0505C13.1605 17.057 13.1605 17.0635 13.1605 17.07C13.1605 17.0765 13.1605 17.083 13.1605 17.0896C13.1605 17.0961 13.1605 17.1027 13.1605 17.1092C13.1605 17.1158 13.1605 17.1224 13.1605 17.129C13.1605 17.1356 13.1605 17.1422 13.1605 17.1488C13.1605 17.1556 13.1605 17.1622 13.1605 17.1689C13.1605 17.1755 13.1605 17.1822 13.1605 17.1889C13.1605 17.1957 13.1605 17.2024 13.1605 17.2091C13.1605 17.2158 13.1605 17.2227 13.1605 17.2294C13.1605 17.2362 13.1605 17.2429 13.1605 17.2498C13.1605 17.2566 13.1605 17.2634 13.1605 17.2703C13.1605 17.2771 13.1605 17.284 13.1605 17.2909C13.1605 17.2977 13.1605 17.3046 13.1605 17.3116C13.1605 17.3184 13.1605 17.3254 13.1605 17.3323C13.1605 17.3392 13.1605 17.3462 13.1605 17.3533C13.1605 17.3602 13.1605 17.3671 13.1605 17.3742C13.1605 17.3813 13.1605 17.3882 13.1605 17.3952C13.1605 17.4023 13.1605 17.4094 13.1605 17.4165C13.1605 17.4236 13.1605 17.4306 13.1605 17.4378C13.1605 17.4449 13.1605 17.452 13.1605 17.4592C13.1605 17.4664 13.1605 17.4735 13.1605 17.4807C13.1605 17.4879 13.1605 17.495 13.1605 17.5023C13.1605 17.5095 13.1605 17.5168 13.1605 17.524C13.1605 17.5312 13.1605 17.5385 13.1605 17.5459C13.1605 17.5532 13.1605 17.5604 13.1605 17.5677C13.1605 17.5751 13.1605 17.5824 13.1605 17.5898C13.1605 17.5972 13.1605 17.6046 13.1605 17.612C13.1605 17.6194 13.1605 17.6268 13.1605 17.6341C13.1605 17.6415 13.1605 17.649 13.1605 17.6565C13.1605 17.6639 13.1605 17.6714 13.1605 17.6789C13.1605 17.6864 13.1605 17.694 13.1605 17.7015C13.1605 17.7091 13.1605 17.7166 13.1605 17.7242C13.1605 17.7317 13.1605 17.7393 13.1605 17.7469C13.1605 17.7545 13.1605 17.7622 13.1605 17.7698C13.1605 17.7775 13.1605 17.7851 13.1605 17.7929C13.1605 17.8005 13.1605 17.8082 13.1605 17.8159C13.1605 17.8236 13.1605 17.8314 13.1605 17.8391C13.1605 17.8468 13.1605 17.8546 13.1605 17.8624C13.1605 17.8701 13.1605 17.878 13.1605 17.8858C13.1605 17.8936 13.1605 17.9015 13.1605 17.9093C13.1605 17.9172 13.1605 17.925 13.1605 17.933C13.1605 17.9408 13.1605 17.9488 13.1605 17.9567C13.1605 17.9647 13.1605 17.9726 13.1605 17.9806C13.1605 17.9885 13.1605 17.9965 13.1605 18.0045C13.1605 18.0125 13.1605 18.0205 13.1605 18.0286C13.1605 18.0366 13.1605 18.0446 13.1605 18.0528C13.1605 18.0609 13.1605 18.0689 13.1605 18.077C13.1605 18.0852 13.1605 18.0932 13.1605 18.1014C13.1605 18.1096 13.1605 18.1178 13.1605 18.1259C13.1605 18.1341 13.1605 18.1423 13.1605 18.1506C13.1605 18.1588 13.1605 18.167 13.1605 18.1753C13.1605 18.1835 13.1605 18.1918 13.1605 18.2001C13.1605 18.2085 13.1605 18.2168 13.1605 18.2251C13.1605 18.2335 13.1605 18.2417 13.1605 18.2501C13.1605 18.2585 13.1605 18.2669 13.1605 18.2753C13.1605 18.2837 13.1605 18.2921 13.1605 18.3007C13.1605 18.3091 13.1605 18.3176 13.1605 18.3261C13.1605 18.3345 13.1605 18.343 13.1605 18.3515C13.1605 18.36 13.1605 18.3686 13.1605 18.3772C13.1605 18.3858 13.1605 18.3943 13.1605 18.4029C13.1605 18.4115 13.1605 18.4202 13.1605 18.4288C13.1605 18.4374 13.1605 18.446 13.1605 18.4548C13.1605 18.4634 13.1605 18.4721 13.1605 18.4809C13.1605 18.4895 13.1605 18.4982 13.1605 18.5071C13.1605 18.5158 13.1605 18.5245 13.1605 18.5334C13.1605 18.5421 13.1605 18.551 13.1605 18.5597C13.1605 18.5686 13.1605 18.5774 13.1605 18.5863C13.1605 18.5952 13.1605 18.6041 13.1605 18.613C13.1605 18.6219 13.1605 18.6308 13.1605 18.6398C13.1605 18.6486 13.1605 18.6576 13.1605 18.6667C13.1605 18.6756 13.1605 18.6846 13.1605 18.6937C13.1605 18.7026 13.1605 18.7117 13.1605 18.7208C13.1605 18.7298 13.1605 18.7389 13.1605 18.748C13.1605 18.7571 13.1605 18.7662 13.1605 18.7753C13.1605 18.7845 13.1605 18.7937 13.1605 18.8029C13.1605 18.812 13.1605 18.8212 13.1605 18.8304C13.1605 18.8396 13.1605 18.8489 13.1605 18.8581C13.1605 18.8674 13.1605 18.8767 13.1605 18.886C13.1605 18.8953 13.1605 18.9046 13.1605 18.9139C13.1605 18.9233 13.1605 18.9326 13.1605 18.942C13.1605 18.9514 13.1605 18.9608 13.1605 18.9702C13.1605 18.9796 13.1605 18.989 13.1605 18.9984C13.1605 19.0079 13.1605 19.0173 13.1605 19.0269C13.1605 19.0364 13.1605 19.0459 13.1605 19.0554C13.1605 19.0649 13.1605 19.0745 13.1605 19.0841C13.1605 19.0936 13.1605 19.1032 13.1605 19.1129C13.1605 19.1225 13.1605 19.1321 13.1605 19.1418C13.1605 19.1514 13.1605 19.161 13.1605 19.1708C13.1605 19.1804 13.1605 19.1902 13.1605 19.1999C13.1605 19.2096 13.1605 19.2194 13.1605 19.2291C13.1605 19.239 13.1605 19.2487 13.1605 19.2586C13.1605 19.2683 13.1605 19.2782 13.1605 19.2881C13.1605 19.2979 13.1605 19.3078 13.1605 19.3177C13.1605 19.3276 13.1605 19.3374 13.1605 19.3474C13.1605 19.3574 13.1605 19.3673 13.1605 19.3773C13.1605 19.3873 13.1605 19.3972 13.1605 19.4073C13.1605 19.4173 13.1605 19.4274 13.1605 19.4375C13.1605 19.4474 13.1605 19.4575 13.1605 19.4677C13.1605 19.4778 13.1605 19.4879 13.1605 19.4981C13.1605 19.5081 13.1605 19.5183 13.1605 19.5285C13.1605 19.5387 13.1605 19.5489 13.1605 19.5591C13.1605 19.5693 13.1605 19.5796 13.1605 19.5898C13.1605 19.6001 13.1605 19.6104 13.1605 19.6207C13.1605 19.631 13.1605 19.6413 13.1605 19.6517C13.1605 19.662 13.1605 19.6724 13.1605 19.6827C13.1605 19.6932 13.1605 19.7036 13.1605 19.714C13.1605 19.7244 13.1605 19.7349 13.1605 19.7453C13.1605 19.7559 13.1605 19.7663 13.1605 19.7768C13.1605 19.7873 13.1605 19.7979 13.1605 19.8084C13.1605 19.819 13.1605 19.8296 13.1605 19.8402C13.1605 19.8507 13.1605 19.8614 13.1605 19.872C13.1605 19.8827 13.1605 19.8933 13.1605 19.904C13.1605 19.9147 13.1605 19.9254 13.1605 19.9361C13.1605 19.9468 13.1605 19.9576 13.1605 19.9683C13.1605 19.9791 13.1605 19.99 13.1605 20.0007C13.1605 20.0116 13.1605 20.0223 13.1605 20.0332C13.1605 20.0441 13.1605 20.0549 13.1605 20.0659C13.1605 20.0768 13.1605 20.0876 13.1605 20.0986H14.8405C14.8405 20.0876 14.8405 20.0768 14.8405 20.0659C14.8405 20.0549 14.8405 20.0441 14.8405 20.0332C14.8405 20.0223 14.8405 20.0116 14.8405 20.0007C14.8405 19.99 14.8405 19.9791 14.8405 19.9683C14.8405 19.9576 14.8405 19.9468 14.8405 19.9361C14.8405 19.9254 14.8405 19.9147 14.8405 19.904C14.8405 19.8933 14.8405 19.8827 14.8405 19.872C14.8405 19.8614 14.8405 19.8507 14.8405 19.8402C14.8405 19.8296 14.8405 19.819 14.8405 19.8084C14.8405 19.7979 14.8405 19.7873 14.8405 19.7768C14.8405 19.7663 14.8405 19.7559 14.8405 19.7453C14.8405 19.7349 14.8405 19.7244 14.8405 19.714C14.8405 19.7036 14.8405 19.6932 14.8405 19.6827C14.8405 19.6724 14.8405 19.662 14.8405 19.6517C14.8405 19.6413 14.8405 19.631 14.8405 19.6207C14.8405 19.6104 14.8405 19.6001 14.8405 19.5898C14.8405 19.5796 14.8405 19.5693 14.8405 19.5591C14.8405 19.5489 14.8405 19.5387 14.8405 19.5285C14.8405 19.5183 14.8405 19.5081 14.8405 19.4981C14.8405 19.4879 14.8405 19.4778 14.8405 19.4677C14.8405 19.4575 14.8405 19.4474 14.8405 19.4375C14.8405 19.4274 14.8405 19.4173 14.8405 19.4073C14.8405 19.3972 14.8405 19.3873 14.8405 19.3773C14.8405 19.3673 14.8405 19.3574 14.8405 19.3474C14.8405 19.3374 14.8405 19.3276 14.8405 19.3177C14.8405 19.3078 14.8405 19.2979 14.8405 19.2881C14.8405 19.2782 14.8405 19.2683 14.8405 19.2586C14.8405 19.2487 14.8405 19.239 14.8405 19.2291C14.8405 19.2194 14.8405 19.2096 14.8405 19.1999C14.8405 19.1902 14.8405 19.1804 14.8405 19.1708C14.8405 19.161 14.8405 19.1514 14.8405 19.1418C14.8405 19.1321 14.8405 19.1225 14.8405 19.1129C14.8405 19.1032 14.8405 19.0936 14.8405 19.0841C14.8405 19.0745 14.8405 19.0649 14.8405 19.0554C14.8405 19.0459 14.8405 19.0364 14.8405 19.0269C14.8405 19.0173 14.8405 19.0079 14.8405 18.9984C14.8405 18.989 14.8405 18.9796 14.8405 18.9702C14.8405 18.9608 14.8405 18.9514 14.8405 18.942C14.8405 18.9326 14.8405 18.9233 14.8405 18.9139C14.8405 18.9046 14.8405 18.8953 14.8405 18.886C14.8405 18.8767 14.8405 18.8674 14.8405 18.8581C14.8405 18.8489 14.8405 18.8396 14.8405 18.8304C14.8405 18.8212 14.8405 18.812 14.8405 18.8029C14.8405 18.7937 14.8405 18.7845 14.8405 18.7753C14.8405 18.7662 14.8405 18.7571 14.8405 18.748C14.8405 18.7389 14.8405 18.7298 14.8405 18.7208C14.8405 18.7117 14.8405 18.7026 14.8405 18.6937C14.8405 18.6846 14.8405 18.6756 14.8405 18.6667C14.8405 18.6576 14.8405 18.6486 14.8405 18.6398C14.8405 18.6308 14.8405 18.6219 14.8405 18.613C14.8405 18.6041 14.8405 18.5952 14.8405 18.5863C14.8405 18.5774 14.8405 18.5686 14.8405 18.5597C14.8405 18.551 14.8405 18.5421 14.8405 18.5334C14.8405 18.5245 14.8405 18.5158 14.8405 18.5071C14.8405 18.4982 14.8405 18.4895 14.8405 18.4809C14.8405 18.4721 14.8405 18.4634 14.8405 18.4548C14.8405 18.446 14.8405 18.4374 14.8405 18.4288C14.8405 18.4202 14.8405 18.4115 14.8405 18.4029C14.8405 18.3943 14.8405 18.3858 14.8405 18.3772C14.8405 18.3686 14.8405 18.36 14.8405 18.3515C14.8405 18.343 14.8405 18.3345 14.8405 18.3261C14.8405 18.3176 14.8405 18.3091 14.8405 18.3007C14.8405 18.2921 14.8405 18.2837 14.8405 18.2753C14.8405 18.2669 14.8405 18.2585 14.8405 18.2501C14.8405 18.2417 14.8405 18.2335 14.8405 18.2251C14.8405 18.2168 14.8405 18.2085 14.8405 18.2001C14.8405 18.1918 14.8405 18.1835 14.8405 18.1753C14.8405 18.167 14.8405 18.1588 14.8405 18.1506C14.8405 18.1423 14.8405 18.1341 14.8405 18.1259C14.8405 18.1178 14.8405 18.1096 14.8405 18.1014C14.8405 18.0932 14.8405 18.0852 14.8405 18.077C14.8405 18.0689 14.8405 18.0609 14.8405 18.0528C14.8405 18.0446 14.8405 18.0366 14.8405 18.0286C14.8405 18.0205 14.8405 18.0125 14.8405 18.0045C14.8405 17.9965 14.8405 17.9885 14.8405 17.9806C14.8405 17.9726 14.8405 17.9647 14.8405 17.9567C14.8405 17.9488 14.8405 17.9408 14.8405 17.933C14.8405 17.925 14.8405 17.9172 14.8405 17.9093C14.8405 17.9015 14.8405 17.8936 14.8405 17.8858C14.8405 17.878 14.8405 17.8701 14.8405 17.8624C14.8405 17.8546 14.8405 17.8468 14.8405 17.8391C14.8405 17.8314 14.8405 17.8236 14.8405 17.8159C14.8405 17.8082 14.8405 17.8005 14.8405 17.7929C14.8405 17.7851 14.8405 17.7775 14.8405 17.7698C14.8405 17.7622 14.8405 17.7545 14.8405 17.7469C14.8405 17.7393 14.8405 17.7317 14.8405 17.7242C14.8405 17.7166 14.8405 17.7091 14.8405 17.7015C14.8405 17.694 14.8405 17.6864 14.8405 17.6789C14.8405 17.6714 14.8405 17.6639 14.8405 17.6565C14.8405 17.649 14.8405 17.6415 14.8405 17.6341C14.8405 17.6268 14.8405 17.6194 14.8405 17.612C14.8405 17.6046 14.8405 17.5972 14.8405 17.5898C14.8405 17.5824 14.8405 17.5751 14.8405 17.5677C14.8405 17.5604 14.8405 17.5532 14.8405 17.5459C14.8405 17.5385 14.8405 17.5312 14.8405 17.524C14.8405 17.5168 14.8405 17.5095 14.8405 17.5023C14.8405 17.495 14.8405 17.4879 14.8405 17.4807C14.8405 17.4735 14.8405 17.4664 14.8405 17.4592C14.8405 17.452 14.8405 17.4449 14.8405 17.4378C14.8405 17.4306 14.8405 17.4236 14.8405 17.4165C14.8405 17.4094 14.8405 17.4023 14.8405 17.3952C14.8405 17.3882 14.8405 17.3813 14.8405 17.3742C14.8405 17.3671 14.8405 17.3602 14.8405 17.3533C14.8405 17.3462 14.8405 17.3392 14.8405 17.3323C14.8405 17.3254 14.8405 17.3184 14.8405 17.3116C14.8405 17.3046 14.8405 17.2977 14.8405 17.2909C14.8405 17.284 14.8405 17.2771 14.8405 17.2703C14.8405 17.2634 14.8405 17.2566 14.8405 17.2498C14.8405 17.2429 14.8405 17.2362 14.8405 17.2294C14.8405 17.2227 14.8405 17.2158 14.8405 17.2091C14.8405 17.2024 14.8405 17.1957 14.8405 17.1889C14.8405 17.1822 14.8405 17.1755 14.8405 17.1689C14.8405 17.1622 14.8405 17.1556 14.8405 17.1488C14.8405 17.1422 14.8405 17.1356 14.8405 17.129C14.8405 17.1224 14.8405 17.1158 14.8405 17.1092C14.8405 17.1027 14.8405 17.0961 14.8405 17.0896C14.8405 17.083 14.8405 17.0765 14.8405 17.07C14.8405 17.0635 14.8405 17.057 14.8405 17.0505C14.8405 17.044 14.8405 17.0375 14.8405 17.0311C14.8405 17.0246 14.8405 17.0183 14.8405 17.0119C14.8405 17.0055 14.8405 16.999 14.8405 16.9926C14.8405 16.9863 14.8405 16.98 14.8405 16.9736C14.8405 16.9672 14.8405 16.9609 14.8405 16.9546C14.8405 16.9483 14.8405 16.942 14.8405 16.9357C14.8405 16.9294 14.8405 16.9232 14.8405 16.9169C14.8405 16.9106 14.8405 16.9045 14.8405 16.8982C14.8405 16.892 14.8405 16.8858 14.8405 16.8796C14.8405 16.8734 14.8405 16.8673 14.8405 16.8611C14.8405 16.855 14.8405 16.8488 14.8405 16.8426C14.8405 16.8366 14.8405 16.8304 14.8405 16.8244C14.8405 16.8183 14.8405 16.8122 14.8405 16.8061C14.8405 16.8001 14.8405 16.794 14.8405 16.788C14.8405 16.782 14.8405 16.776 14.8405 16.77C14.8405 16.764 14.8405 16.7581 14.8405 16.752C14.8405 16.7461 14.8405 16.7402 14.8405 16.7342C14.8405 16.7283 14.8405 16.7224 14.8405 16.7165C14.8405 16.7106 14.8405 16.7047 14.8405 16.6988C14.8405 16.693 14.8405 16.6871 14.8405 16.6812C14.8405 16.6754 14.8405 16.6696 14.8405 16.6638C14.8405 16.6581 14.8405 16.6522 14.8405 16.6464C14.8405 16.6407 14.8405 16.6349 14.8405 16.6292C14.8405 16.6235 14.8405 16.6177 14.8405 16.612C14.8405 16.6063 14.8405 16.6006 14.8405 16.5949C14.8405 16.5892 14.8405 16.5836 14.8405 16.5779C14.8405 16.5723 14.8405 16.5667 14.8405 16.561C14.8405 16.5554 14.8405 16.5498 14.8405 16.5442C14.8405 16.5386 14.8405 16.5331 14.8405 16.5275C14.8405 16.5219 14.8405 16.5164 14.8405 16.5109C14.8405 16.5053 14.8405 16.4998 14.8405 16.4943C14.8405 16.4888 14.8405 16.4833 14.8405 16.4779C14.8405 16.4724 14.8405 16.467 14.8405 16.4615C14.8405 16.456 14.8405 16.4506 14.8405 16.4453C14.8405 16.4398 14.8405 16.4344 14.8405 16.429C14.8405 16.4236 14.8405 16.4183 14.8405 16.413C14.8405 16.4076 14.8405 16.4023 14.8405 16.397C14.8405 16.3916 14.8405 16.3864 14.8405 16.3811C14.8405 16.3758 14.8405 16.3705 14.8405 16.3653C14.8405 16.36 14.8405 16.3548 14.8405 16.3495C14.8405 16.3442 14.8405 16.3391 14.8405 16.3338C14.8405 16.3287 14.8405 16.3235 14.8405 16.3184C14.8405 16.3131 14.8405 16.308 14.8405 16.3028C14.8405 16.2978 14.8405 16.2926 14.8405 16.2875C14.8405 16.2824 14.8405 16.2773 14.8405 16.2722C14.8405 16.2671 14.8405 16.262 14.8405 16.257C14.8405 16.252 14.8405 16.2469 14.8405 16.2419C14.8405 16.2368 14.8405 16.2318 14.8405 16.2269C14.8405 16.2218 14.8405 16.2169 14.8405 16.2119C14.8405 16.2069 14.8405 16.202 14.8405 16.1971C14.8405 16.1921 14.8405 16.1872 14.8405 16.1823C14.8405 16.1774 14.8405 16.1724 14.8405 16.1676C14.8405 16.1627 14.8405 16.1579 14.8405 16.1529C14.8405 16.1481 14.8405 16.1433 14.8405 16.1385C14.8405 16.1337 14.8405 16.1289 14.8405 16.124C14.8405 16.1192 14.8405 16.1145 14.8405 16.1097C14.8405 16.1049 14.8405 16.1002 14.8405 16.0955C14.8405 16.0907 14.8405 16.086 14.8405 16.0813C14.8405 16.0766 14.8405 16.0719 14.8405 16.0672C14.8405 16.0626 14.8405 16.0579 14.8405 16.0532C14.8405 16.0486 14.8405 16.0439 14.8405 16.0393C14.8405 16.0347 14.8405 16.0301 14.8405 16.0254C14.8405 16.0208 14.8405 16.0162 14.8405 16.0117C14.8405 16.0071 14.8405 16.0025 14.8405 15.9981C14.8405 15.9935 14.8405 15.989 14.8405 15.9844C14.8405 15.9799 14.8405 15.9754 14.8405 15.9709C14.8405 15.9665 14.8405 15.962 14.8405 15.9575C14.8405 15.953 14.8405 15.9485 14.8405 15.9442C14.8405 15.9397 14.8405 15.9353 14.8405 15.9309C14.8405 15.9265 14.8405 15.9221 14.8405 15.9177C14.8405 15.9133 14.8405 15.9089 14.8405 15.9046C14.8405 15.9003 14.8405 15.8959 14.8405 15.8915C14.8405 15.8873 14.8405 15.8829 14.8405 15.8787C14.8405 15.8743 14.8405 15.87 14.8405 15.8658C14.8405 15.8615 14.8405 15.8573 14.8405 15.853C14.8405 15.8488 14.8405 15.8445 14.8405 15.8404C14.8405 15.8361 14.8405 15.8318 14.8405 15.8277C14.8405 15.8234 14.8405 15.8193 14.8405 15.8152C14.8405 15.811 14.8405 15.8069 14.8405 15.8027C14.8405 15.7986 14.8405 15.7944 14.8405 15.7903C14.8405 15.7861 14.8405 15.7821 14.8405 15.778C14.8405 15.7739 14.8405 15.7698 14.8405 15.7658C14.8405 15.7617 14.8405 15.7577 14.8405 15.7537C14.8405 15.7496 14.8405 15.7456 14.8405 15.7416C14.8405 15.7375 14.8405 15.7336 14.8405 15.7296C14.8405 15.7256 14.8405 15.7216 14.8405 15.7177C14.8405 15.7137 14.8405 15.7098 14.8405 15.7058C14.8405 15.7019 14.8405 15.698 14.8405 15.6941C14.8405 15.6902 14.8405 15.6862 14.8405 15.6824C14.8405 15.6785 14.8405 15.6746 14.8405 15.6708C14.8405 15.667 14.8405 15.6631 14.8405 15.6592C14.8405 15.6554 14.8405 15.6516 14.8405 15.6478C14.8405 15.644 14.8405 15.6402 14.8405 15.6364C14.8405 15.6326 14.8405 15.6289 14.8405 15.6251C14.8405 15.6214 14.8405 15.6176 14.8405 15.6139C14.8405 15.6102 14.8405 15.6065 14.8405 15.6027C14.8405 15.599 14.8405 15.5953 14.8405 15.5917C14.8405 15.588 14.8405 15.5843 14.8405 15.5806C14.8405 15.577 14.8405 15.5733 14.8405 15.5698C14.8405 15.5661 14.8405 15.5625 14.8405 15.5589C14.8405 15.5553 14.8405 15.5516 14.8405 15.5481C14.8405 15.5446 14.8405 15.541 14.8405 15.5374C14.8405 15.5338 14.8405 15.5302 14.8405 15.5268C14.8405 15.5232 14.8405 15.5197 14.8405 15.5162C14.8405 15.5126 14.8405 15.5092 14.8405 15.5057C14.8405 15.5022 14.8405 15.4988 14.8405 15.4953C14.8405 15.4918 14.8405 15.4883 14.8405 15.485C14.8405 15.4815 14.8405 15.478 14.8405 15.4747C14.8405 15.4712 14.8405 15.4678 14.8405 15.4645C14.8405 15.461 14.8405 15.4576 14.8405 15.4543C14.8405 15.4509 14.8405 15.4476 14.8405 15.4442C14.8405 15.441 14.8405 15.4376 14.8405 15.4342C14.8405 15.431 14.8405 15.4276 14.8405 15.4244C14.8405 15.421 14.8405 15.4178 14.8405 15.4145C14.8405 15.4113 14.8405 15.4079 14.8405 15.4047C14.8405 15.4014 14.8405 15.3983 14.8405 15.395C14.8405 15.3918 14.8405 15.3885 14.8405 15.3854C14.8405 15.3822 14.8405 15.379 14.8405 15.3758C14.8405 15.3726 14.8405 15.3695 14.8405 15.3663C14.8405 15.3631 14.8405 15.36 14.8405 15.3569C14.8405 15.3537 14.8405 15.3506 14.8405 15.3476C14.8405 15.3444 14.8405 15.3413 14.8405 15.3383C14.8405 15.3351 14.8405 15.3321 14.8405 15.329C14.8405 15.3259 14.8405 15.3229 14.8405 15.3198C14.8405 15.3168 14.8405 15.3137 14.8405 15.3107C14.8405 15.3077 14.8405 15.3048 14.8405 15.3017C14.8405 15.2987 14.8405 15.2957 14.8405 15.2928C14.8405 15.2898 14.8405 15.2868 14.8405 15.2838C14.8405 15.2809 14.8405 15.278 14.8405 15.2751C14.8405 15.2721 14.8405 15.2692 14.8405 15.2662C14.8405 15.2633 14.8405 15.2605 14.8405 15.2576C14.8405 15.2547 14.8405 15.2518 14.8405 15.249C14.8405 15.2461 14.8405 15.2433 14.8405 15.2404C14.8405 15.2376 14.8405 15.2348 14.8405 15.232C14.8405 15.2291 14.8405 15.2263 14.8405 15.2235C14.8405 15.2207 14.8405 15.2179 14.8405 15.2152C14.8405 15.2124 14.8405 15.2096 14.8405 15.2069C14.8405 15.2041 14.8405 15.2013 14.8405 15.1986C14.8405 15.1959 14.8405 15.1931 14.8405 15.1904C14.8405 15.1877 14.8405 15.185 14.8405 15.1824C14.8405 15.1797 14.8405 15.177 14.8405 15.1743C14.8405 15.1716 14.8405 15.1689 14.8405 15.1663C14.8405 15.1636 14.8405 15.161 14.8405 15.1584C14.8405 15.1557 14.8405 15.1531 14.8405 15.1505C14.8405 15.1479 14.8405 15.1453 14.8405 15.1427C14.8405 15.1401 14.8405 15.1376 14.8405 15.135C14.8405 15.1324 14.8405 15.1298 14.8405 15.1274C14.8405 15.1248 14.8405 15.1222 14.8405 15.1197C14.8405 15.1172 14.8405 15.1147 14.8405 15.1121C14.8405 15.1097 14.8405 15.1072 14.8405 15.1047C14.8405 15.1022 14.8405 15.0997 14.8405 15.0972C14.8405 15.0948 14.8405 15.0923 14.8405 15.09C14.8405 15.0875 14.8405 15.085 14.8405 15.0826C14.8405 15.0802 14.8405 15.0777 14.8405 15.0754C14.8405 15.0729 14.8405 15.0706 14.8405 15.0682C14.8405 15.0658 14.8405 15.0634 14.8405 15.0611C14.8405 15.0587 14.8405 15.0564 14.8405 15.054C14.8405 15.0517 14.8405 15.0493 14.8405 15.0471C14.8405 15.0447 14.8405 15.0424 14.8405 15.0401C14.8405 15.0378 14.8405 15.0355 14.8405 15.0332C14.8405 15.0309 14.8405 15.0286 14.8405 15.0263C14.8405 15.0241 14.8405 15.0219 14.8405 15.0196C14.8405 15.0174 14.8405 15.0151 14.8405 15.0129C14.8405 15.0107 14.8405 15.0084 14.8405 15.0063C14.8405 15.0041 14.8405 15.0018 14.8405 14.9997C14.8405 14.9974 14.8405 14.9953 14.8405 14.9931C14.8405 14.9909 14.8405 14.9888 14.8405 14.9867C14.8405 14.9844 14.8405 14.9823 14.8405 14.9802C14.8405 14.9781 14.8405 14.9759 14.8405 14.9738C14.8405 14.9717 14.8405 14.9697 14.8405 14.9675C14.8405 14.9654 14.8405 14.9634 14.8405 14.9613C14.8405 14.9592 14.8405 14.9571 14.8405 14.9551C14.8405 14.953 14.8405 14.951 14.8405 14.9489C14.8405 14.9469 14.8405 14.9449 14.8405 14.9429C14.8405 14.9409 14.8405 14.9389 14.8405 14.9369C14.8405 14.9348 14.8405 14.9328 14.8405 14.9308C14.8405 14.9289 14.8405 14.9269 14.8405 14.925C14.8405 14.923 14.8405 14.9211 14.8405 14.919C14.8405 14.9171 14.8405 14.9152 14.8405 14.9132C14.8405 14.9113 14.8405 14.9094 14.8405 14.9075C14.8405 14.9056 14.8405 14.9037 14.8405 14.9018C14.8405 14.8999 14.8405 14.898 14.8405 14.8962C14.8405 14.8943 14.8405 14.8924 14.8405 14.8906C14.8405 14.8887 14.8405 14.8868 14.8405 14.885C14.8405 14.8832 14.8405 14.8813 14.8405 14.8795C14.8405 14.8777 14.8405 14.8758 14.8405 14.874C14.8405 14.8722 14.8405 14.8704 14.8405 14.8686C14.8405 14.8669 14.8405 14.8651 14.8405 14.8634C14.8405 14.8616 14.8405 14.8598 14.8405 14.858C14.8405 14.8563 14.8405 14.8545 14.8405 14.8529C14.8405 14.8511 14.8405 14.8494 14.8405 14.8476C14.8405 14.8459 14.8405 14.8442 14.8405 14.8425C14.8405 14.8408 14.8405 14.8391 14.8405 14.8374C14.8405 14.8357 14.8405 14.834 14.8405 14.8324C14.8405 14.8307 14.8405 14.8291 14.8405 14.8274C14.8405 14.8257 14.8405 14.8241 14.8405 14.8225C14.8405 14.8208 14.8405 14.8192 14.8405 14.8176C14.8405 14.816 14.8405 14.8143 14.8405 14.8128C14.8405 14.8112 14.8405 14.8095 14.8405 14.8079C14.8405 14.8064 14.8405 14.8048 14.8405 14.8032C14.8405 14.8017 14.8405 14.8001 14.8405 14.7985C14.8405 14.797 14.8405 14.7954 14.8405 14.7939C14.8405 14.7924 14.8405 14.7908 14.8405 14.7893C14.8405 14.7878 14.8405 14.7863 14.8405 14.7848C14.8405 14.7833 14.8405 14.7817 14.8405 14.7803C14.8405 14.7788 14.8405 14.7773 14.8405 14.7758C14.8405 14.7743 14.8405 14.7729 14.8405 14.7714C14.8405 14.77 14.8405 14.7685 14.8405 14.7671C14.8405 14.7656 14.8405 14.7641 14.8405 14.7628C14.8405 14.7613 14.8405 14.7599 14.8405 14.7585C14.8405 14.7571 14.8405 14.7557 14.8405 14.7543C14.8405 14.7529 14.8405 14.7515 14.8405 14.7501C14.8405 14.7487 14.8405 14.7473 14.8405 14.746C14.8405 14.7447 14.8405 14.7433 14.8405 14.742C14.8405 14.7406 14.8405 14.7393 14.8405 14.7379C14.8405 14.7366 14.8405 14.7352 14.8405 14.7339C14.8405 14.7326 14.8405 14.7312 14.8405 14.73C14.8405 14.7286 14.8405 14.7273 14.8405 14.7261C14.8405 14.7247 14.8405 14.7235 14.8405 14.7223C14.8405 14.7209 14.8405 14.7197 14.8405 14.7183C14.8405 14.7171 14.8405 14.7159 14.8405 14.7146C14.8405 14.7134 14.8405 14.7122 14.8405 14.7109C14.8405 14.7097 14.8405 14.7085 14.8405 14.7073C14.8405 14.706 14.8405 14.7048 14.8405 14.7036C14.8405 14.7023 14.8405 14.7012 14.8405 14.7C14.8405 14.6987 14.8405 14.6976 14.8405 14.6964C14.8405 14.6953 14.8405 14.694 14.8405 14.6929C14.8405 14.6918 14.8405 14.6906 14.8405 14.6894C14.8405 14.6883 14.8405 14.6872 14.8405 14.686C14.8405 14.6849 14.8405 14.6837 14.8405 14.6826C14.8405 14.6815 14.8405 14.6804 14.8405 14.6792C14.8405 14.6781 14.8405 14.6771 14.8405 14.676C14.8405 14.6749 14.8405 14.6738 14.8405 14.6728C14.8405 14.6716 14.8405 14.6705 14.8405 14.6695C14.8405 14.6684 14.8405 14.6674 14.8405 14.6663C14.8405 14.6652 14.8405 14.6642 14.8405 14.6631C14.8405 14.6621 14.8405 14.6611 14.8405 14.6601C14.8405 14.659 14.8405 14.658 14.8405 14.657C14.8405 14.656 14.8405 14.6549 14.8405 14.6539C14.8405 14.6529 14.8405 14.6519 14.8405 14.651C14.8405 14.65 14.8405 14.649 14.8405 14.648C14.8405 14.6471 14.8405 14.6461 14.8405 14.6451C14.8405 14.6442 14.8405 14.6432 14.8405 14.6423C14.8405 14.6413 14.8405 14.6404 14.8405 14.6394C14.8405 14.6385 14.8405 14.6376 14.8405 14.6366C14.8405 14.6357 14.8405 14.6348 14.8405 14.6339C14.8405 14.633 14.8405 14.632 14.8405 14.6311C14.8405 14.6302 14.8405 14.6293 14.8405 14.6284C14.8405 14.6275 14.8405 14.6267 14.8405 14.6258C14.8405 14.6249 14.8405 14.624 14.8405 14.6231C14.8405 14.6224 14.8405 14.6215 14.8405 14.6206C14.8405 14.6198 14.8405 14.6189 14.8405 14.6181C14.8405 14.6172 14.8405 14.6164 14.8405 14.6155C14.8405 14.6147 14.8405 14.614 14.8405 14.6131C14.8405 14.6123 14.8405 14.6115 14.8405 14.6106C14.8405 14.6098 14.8405 14.609 14.8405 14.6082C14.8405 14.6075 14.8405 14.6067 14.8405 14.6059C14.8405 14.6051 14.8405 14.6043 14.8405 14.6035C14.8405 14.6028 14.8405 14.602 14.8405 14.6013C14.8405 14.6005 14.8405 14.5997 14.8405 14.5989C14.8405 14.5983 14.8405 14.5975 14.8405 14.5967C14.8405 14.596 14.8405 14.5952 14.8405 14.5946C14.8405 14.5938 14.8405 14.5931 14.8405 14.5923C14.8405 14.5917 14.8405 14.591 14.8405 14.5902C14.8405 14.5895 14.8405 14.5889 14.8405 14.5882C14.8405 14.5875 14.8405 14.5867 14.8405 14.5861C14.8405 14.5854 14.8405 14.5847 14.8405 14.584C14.8405 14.5834 14.8405 14.5827 14.8405 14.582C14.8405 14.5814 14.8405 14.5807 14.8405 14.5801C14.8405 14.5795 14.8405 14.5788 14.8405 14.5781C14.8405 14.5776 14.8405 14.5769 14.8405 14.5762C14.8405 14.5756 14.8405 14.575 14.8405 14.5743C14.8405 14.5737 14.8405 14.5731 14.8405 14.5725C14.8405 14.572 14.8405 14.5713 14.8405 14.5707C14.8405 14.57 14.8405 14.5695 14.8405 14.5689C14.8405 14.5683 14.8405 14.5677 14.8405 14.5671C14.8405 14.5666 14.8405 14.566 14.8405 14.5655C14.8405 14.5649 14.8405 14.5642 14.8405 14.5637C14.8405 14.5631 14.8405 14.5625 14.8405 14.5621C14.8405 14.5615 14.8405 14.561 14.8405 14.5604C14.8405 14.5599 14.8405 14.5593 14.8405 14.5588C14.8405 14.5583 14.8405 14.5577 14.8405 14.5572C14.8405 14.5567 14.8405 14.5562 14.8405 14.5556C14.8405 14.5552 14.8405 14.5546 14.8405 14.5541C14.8405 14.5536 14.8405 14.5531 14.8405 14.5526C14.8405 14.5521 14.8405 14.5517 14.8405 14.5511C14.8405 14.5507 14.8405 14.5502 14.8405 14.5497C14.8405 14.5492 14.8405 14.5488 14.8405 14.5483C14.8405 14.5479 14.8405 14.5473 14.8405 14.5469C14.8405 14.5464 14.8405 14.546 14.8405 14.5455C14.8405 14.5451 14.8405 14.5446 14.8405 14.5442C14.8405 14.5437 14.8405 14.5433 14.8405 14.5428C14.8405 14.5424 14.8405 14.542 14.8405 14.5416C14.8405 14.5412 14.8405 14.5407 14.8405 14.5404C14.8405 14.5399 14.8405 14.5395 14.8405 14.539C14.8405 14.5387 14.8405 14.5382 14.8405 14.5379C14.8405 14.5375 14.8405 14.5371 14.8405 14.5367C14.8405 14.5362 14.8405 14.5359 14.8405 14.5356C14.8405 14.5351 14.8405 14.5348 14.8405 14.5343C14.8405 14.534 14.8405 14.5336 14.8405 14.5332C14.8405 14.5329 14.8405 14.5335 14.8405 14.5332C14.8405 14.5328 14.8405 14.5314 14.8405 14.5311C14.8405 14.5307 14.8405 14.5314 14.8405 14.5311C14.8405 14.5307 14.8405 14.5294 14.8405 14.5291C14.8405 14.5287 14.8405 14.5294 14.8405 14.5291C14.8405 14.5287 14.8405 14.5274 14.8405 14.527C14.8405 14.5267 14.8405 14.5274 14.8405 14.527C14.8405 14.5267 14.8405 14.5255 14.8405 14.5251C14.8405 14.5248 14.8405 14.5254 14.8405 14.5251C14.8405 14.5248 14.8405 14.5236 14.8405 14.5233C14.8405 14.523 14.8405 14.5237 14.8405 14.5233C14.8405 14.523 14.8405 14.5219 14.8405 14.5216C14.8405 14.5213 14.8405 14.5218 14.8405 14.5216C14.8405 14.5213 14.8405 14.5202 14.8405 14.52C14.8405 14.5196 14.8405 14.5202 14.8405 14.52C14.8405 14.5196 14.8405 14.5186 14.8405 14.5184C14.8405 14.5182 14.8405 14.5186 14.8405 14.5184C14.8405 14.5182 14.8405 14.5172 14.8405 14.517C14.8405 14.5166 14.8405 14.5172 14.8405 14.517C14.8405 14.5167 14.8405 14.5157 14.8405 14.5155C14.8405 14.5153 14.8405 14.5157 14.8405 14.5155C14.8405 14.5153 14.8405 14.5144 14.8405 14.5142C14.8405 14.5139 14.8405 14.5144 14.8405 14.5142C14.8405 14.5139 14.8405 14.5132 14.8405 14.5129C14.8405 14.5127 14.8405 14.5132 14.8405 14.5129C14.8405 14.5128 14.8405 14.5119 14.8405 14.5117C14.8405 14.5115 14.8405 14.5102 14.8405 14.51C14.8405 14.5099 14.8405 14.5087 14.8405 14.5086C14.8405 14.5084 14.8405 14.5073 14.8405 14.5072C14.8405 14.5071 14.8405 14.5061 14.8405 14.5059C14.8405 14.5058 14.8405 14.505 14.8405 14.5048C14.8405 14.5046 14.8405 14.5036 14.8405 14.5035C14.8405 14.5034 14.8405 14.5036 14.8405 14.5035C14.8405 14.5034 14.8405 14.5025 14.8405 14.5024C14.8405 14.5023 14.8405 14.5012 14.8405 14.5011C14.8405 14.5011 14.8405 14.5 14.8405 14.4999C14.8405 14.4998 14.8405 14.4986 14.8405 14.4986H14.0005ZM14.8405 14.4986V8.89859H13.1605V14.4986H14.8405Z" fill="#FDD085"/>
</svg>
