<svg width="60" height="60" viewBox="0 0 60 60" fill="none" xmlns="http://www.w3.org/2000/svg">
<path fill-rule="evenodd" clip-rule="evenodd" d="M40.5498 4.42256C40.0732 5.44875 39.5944 6.48327 39.1249 7.51992C40.4883 7.29415 41.8409 7.079 43.184 6.85053C43.6261 6.7793 44.0625 6.71239 44.5047 6.64101C44.316 7.04509 44.1334 7.44491 43.945 7.84872C43.4035 9.01469 42.8593 10.1914 42.3291 11.3698C46.6273 14.8159 49.6324 19.7914 50.5082 25.4645C55.1509 24.7491 59.3031 25.6854 59.9069 27.3926C60.6678 29.5458 56.6872 34.1811 50.7719 36.2468C50.4042 36.3752 50.0388 36.4943 49.6769 36.6039C49.1756 37.8697 48.5132 39.0792 47.7105 40.2207C47.5475 40.4992 47.3783 40.774 47.2037 41.0447C47.6423 41.7123 47.9697 42.4917 48.1415 43.3487C48.7598 46.4323 48.7352 49.5186 46.1159 50.0378C44.358 50.3861 41.8778 49.4892 40.2498 47.93C36.7423 50.1454 32.5807 51.4291 28.1173 51.4291C23.6718 51.4291 19.5254 50.1558 16.0267 47.9567C14.4342 49.6756 11.8899 50.7443 10.0706 50.3839C7.45125 49.8648 7.32888 46.5814 7.94711 43.4978C8.13483 42.5617 8.50838 41.7181 9.00966 41.0117C7.09822 38.0359 5.87077 34.5839 5.54809 30.8745C5.54557 30.8723 5.54272 30.8696 5.5402 30.8674C0.938212 26.8815 -0.983495 21.2644 0.484019 19.5884C1.41279 18.5288 4.20665 18.7207 7.299 20.0137C10.281 13.1261 16.6205 8.01363 24.269 6.71242C29.6315 4.93562 34.7744 4.27728 39.7888 3.42437C40.2309 3.35312 40.6679 3.28625 41.1103 3.21484C40.9216 3.61893 40.7381 4.01874 40.5498 4.42256ZM26.8701 7.68942C15.6417 8.33147 6.73536 17.586 6.73536 28.9087C6.73537 34.5934 8.98041 39.7568 12.637 43.5708C10.3976 40.5055 9.53541 36.5509 9.5354 30.9279C9.53544 20.9561 17.2979 10.2137 26.8701 7.68942ZM15.6983 22.7619C15.8157 22.9515 15.9456 23.1739 16.0591 23.3802C16.4946 24.1819 16.9317 24.9857 17.3766 25.7855C16.0829 27.0639 16.2136 29.2935 17.6742 30.7788C18.6873 31.8088 20.0751 32.2111 21.2692 31.9417C21.9138 32.8361 22.5769 33.7188 23.2427 34.5973C23.3888 34.7925 23.5383 34.9983 23.6738 35.1882C23.9361 35.0744 24.1992 34.9606 24.4616 34.8468C24.4048 34.5991 24.3297 34.3399 24.2548 34.0951C23.9007 32.9805 23.4641 31.9132 22.9633 30.8847C23.9937 29.5801 23.7905 27.5459 22.4273 26.1598C21.4951 25.212 20.2451 24.7956 19.1212 24.945C18.4542 24.1488 17.732 23.3876 16.9369 22.6708C16.7456 22.5049 16.5326 22.3244 16.3172 22.1702C16.1112 22.3674 15.9044 22.5646 15.6983 22.7619ZM40.0169 26.2744C38.7046 24.9989 36.451 25.1743 34.9836 26.6659C33.5164 28.1579 33.391 30.4009 34.7034 31.6765C36.0159 32.9521 38.2694 32.7768 39.7367 31.2849C41.2034 29.7931 41.329 27.5498 40.0169 26.2744ZM38.2865 17.3582C38.7649 17.8813 39.3487 18.6666 39.9246 19.5217C39.2325 20.0397 38.5483 20.5504 37.8547 21.0747L38.9331 22.4849C39.5803 21.9956 40.2268 21.5129 40.8837 21.0213C41.3781 21.8363 41.8091 22.6165 42.0828 23.206L43.7003 22.4637C43.3845 21.7836 42.8835 20.8804 42.311 19.9462C43.179 19.2908 44.0803 18.6046 45.036 17.8518L43.9292 16.4636C43.0235 17.1771 42.1709 17.8271 41.3471 18.4497C40.7437 17.5598 40.1282 16.7385 39.6049 16.1662L38.2865 17.3582Z" fill="#F7FFF7"/>
</svg>
