<svg width="32" height="32" viewBox="0 0 32 32" fill="none" xmlns="http://www.w3.org/2000/svg">
<path d="M8.59175 4.91552C9.29422 4.44615 10.0362 4.0469 10.807 3.72099C12.6776 2.93015 13.6128 2.53472 14.8061 3.32574C15.9993 4.11676 15.9993 5.41176 15.9993 8.00179V10.6685C15.9993 13.1826 15.9993 14.4397 16.7804 15.2207C17.5615 16.0018 18.8185 16.0018 21.3327 16.0018H23.9993C26.5893 16.0018 27.8844 16.0018 28.6753 17.195C29.4664 18.3883 29.0709 19.3235 28.2801 21.1941C27.9543 21.9649 27.5549 22.7069 27.0856 23.4094C25.6205 25.6021 23.5381 27.311 21.1017 28.3202C18.6655 29.3294 15.9845 29.5934 13.3981 29.0789C10.8117 28.5645 8.43596 27.2946 6.57127 25.4299C4.70656 23.5651 3.43668 21.1894 2.92222 18.603C2.40775 16.0166 2.67179 13.3357 3.68096 10.8993C3.90455 10.3595 4.16248 9.83714 4.45243 9.33496" stroke="#1864BC" stroke-width="2" stroke-linecap="round"/>
<path d="M19.334 3.08594C24.0193 4.29187 27.708 7.98052 28.914 12.6659" stroke="#1864BC" stroke-width="2" stroke-linecap="round"/>
</svg>
