<svg width="32" height="32" viewBox="0 0 32 32" fill="none" xmlns="http://www.w3.org/2000/svg">
<path d="M29.3327 16C29.3327 16 28.0088 17.1876 25.3609 18.2468L21.6163 19.7447C18.9684 20.8037 17.6445 21.3333 15.9993 21.3333C14.3541 21.3333 13.0303 20.8037 10.3824 19.7447L6.63779 18.2468C3.98994 17.1876 2.66602 16 2.66602 16" stroke="#A9C59A" stroke-width="2" stroke-linecap="round"/>
<path d="M2.66602 21.332C2.66602 21.332 3.98994 22.5196 6.63779 23.5788L10.3824 25.0767C13.0303 26.1358 14.3541 26.6654 15.9993 26.6654C17.2712 26.6654 18.3512 26.3488 19.9993 25.7158M25.3609 23.5788C28.0088 22.5196 29.3327 21.332 29.3327 21.332" stroke="#A9C59A" stroke-width="2" stroke-linecap="round"/>
<path d="M6.63779 8.41859C3.98994 9.47772 2.66602 10.0073 2.66602 10.6654C2.66602 11.3234 3.98994 11.853 6.63779 12.9121L10.3824 14.41C13.0303 15.4691 14.3541 15.9987 15.9993 15.9987C17.6445 15.9987 18.9684 15.4691 21.6163 14.41L25.3609 12.9121C28.0088 11.853 29.3327 11.3234 29.3327 10.6654C29.3327 10.0073 28.0088 9.47772 25.3609 8.41859L21.6163 6.92074C18.9684 5.8616 17.6445 5.33203 15.9993 5.33203C14.7275 5.33203 13.6475 5.64856 11.9993 6.28164" stroke="#A9C59A" stroke-width="2" stroke-linecap="round"/>
</svg>
