<svg width="257" height="180" viewBox="0 0 257 180" fill="none" xmlns="http://www.w3.org/2000/svg">
<g clip-path="url(#clip0_1555_6732)">
<path d="M20.0026 73.3359C15.6359 73.3359 12.0859 76.8859 12.0859 81.2526C12.0859 85.5359 15.4359 89.0026 19.8026 89.1526C19.9359 89.1359 20.0693 89.1359 20.1693 89.1526C20.2026 89.1526 20.2193 89.1526 20.2526 89.1526C20.2693 89.1526 20.2693 89.1526 20.2859 89.1526C24.5526 89.0026 27.9026 85.5359 27.9193 81.2526C27.9193 76.8859 24.3693 73.3359 20.0026 73.3359Z" fill="#A9C59A"/>
<path d="M28.4656 93.5828C23.8156 90.4828 16.2323 90.4828 11.549 93.5828C9.43229 94.9995 8.26562 96.9161 8.26562 98.9661C8.26562 101.016 9.43229 102.916 11.5323 104.316C13.8656 105.883 16.9322 106.666 19.9989 106.666C23.0656 106.666 26.1322 105.883 28.4656 104.316C30.5656 102.899 31.7322 100.999 31.7322 98.9328C31.7156 96.8828 30.5656 94.9828 28.4656 93.5828Z" fill="#A9C59A"/>
<path d="M61.8866 88.0528C63.3835 88.9194 63.3835 91.0806 61.8866 91.9472L54.3773 96.2947C52.8773 97.1631 51 96.0807 51 94.3475L51 85.6525C51 83.9193 52.8773 82.8369 54.3773 83.7053L61.8866 88.0528Z" fill="#F7FFF7"/>
<path d="M115.475 57.5C115.25 60.0031 115.25 63.1487 115.25 67.1279V112.872C115.25 116.851 115.25 119.997 115.475 122.5H110.917C100.703 122.5 95.596 122.5 92.423 119.327C89.25 116.154 89.25 111.047 89.25 100.833V79.1667C89.25 68.9529 89.25 63.846 92.423 60.673C95.596 57.5 100.703 57.5 110.917 57.5H115.475Z" fill="#D89453"/>
<path fill-rule="evenodd" clip-rule="evenodd" d="M118.315 48.439C115.25 51.1559 115.25 56.1258 115.25 66.0657V113.937C115.25 123.877 115.25 128.847 118.315 131.564C121.379 134.281 126.064 133.463 135.433 131.829L145.524 130.069C155.901 128.259 161.088 127.355 164.169 123.549C167.25 119.743 167.25 114.239 167.25 103.231V76.7721C167.25 65.7637 167.25 60.2595 164.169 56.4537C161.088 52.6479 155.901 51.7431 145.524 49.9333L135.433 48.1732C126.064 46.5391 121.379 45.722 118.315 48.439ZM131.5 85.4664C131.5 83.5879 130.045 82.0652 128.25 82.0652C126.455 82.0652 125 83.5879 125 85.4664V94.5361C125 96.4146 126.455 97.9373 128.25 97.9373C130.045 97.9373 131.5 96.4146 131.5 94.5361V85.4664Z" fill="#F7FFF7"/>
<path d="M202.137 88.0528C203.634 88.9194 203.634 91.0806 202.137 91.9472L194.627 96.2947C193.127 97.1631 191.25 96.0807 191.25 94.3475L191.25 85.6525C191.25 83.9193 193.127 82.8369 194.627 83.7053L202.137 88.0528Z" fill="#F7FFF7"/>
<path d="M233.149 99.9654C240.503 99.9654 246.465 94.0034 246.465 86.6487C246.465 79.2941 240.503 73.332 233.149 73.332C225.794 73.332 219.832 79.2941 219.832 86.6487C219.832 94.0034 225.794 99.9654 233.149 99.9654Z" fill="#D89453"/>
<path d="M253.115 96.6482C253.115 102.148 248.648 106.615 243.148 106.615C239.748 106.615 236.765 104.915 234.965 102.332C242.232 101.515 248.015 95.7315 248.832 88.4648C251.415 90.2648 253.115 93.2482 253.115 96.6482Z" fill="#F7FFF7"/>
<path d="M235.582 86.1836L231.582 84.7836C231.182 84.6503 231.099 84.6169 231.099 84.0336C231.099 83.6003 231.399 83.2503 231.782 83.2503H234.282C234.815 83.2503 235.249 83.7336 235.249 84.3336C235.249 85.0169 235.815 85.5836 236.499 85.5836C237.182 85.5836 237.749 85.0169 237.749 84.3336C237.749 82.4169 236.265 80.8503 234.415 80.7669V80.6836C234.415 80.0003 233.849 79.4336 233.165 79.4336C232.482 79.4336 231.915 79.9836 231.915 80.6836V80.7669H231.765C230.015 80.7669 228.582 82.2336 228.582 84.0503C228.582 85.6336 229.282 86.6503 230.732 87.1503L234.749 88.5503C235.149 88.6837 235.232 88.717 235.232 89.3003C235.232 89.7337 234.932 90.0837 234.549 90.0837H232.049C231.515 90.0837 231.082 89.6003 231.082 89.0003C231.082 88.317 230.515 87.7503 229.832 87.7503C229.149 87.7503 228.582 88.317 228.582 89.0003C228.582 90.917 230.065 92.4837 231.915 92.567V92.667C231.915 93.3503 232.482 93.917 233.165 93.917C233.849 93.917 234.415 93.3503 234.415 92.667V92.5837H234.565C236.315 92.5837 237.749 91.117 237.749 89.3003C237.749 87.717 237.032 86.7003 235.582 86.1836Z" fill="#292D32"/>
<path d="M82.9629 76.5882C123.055 86.7915 66.1513 27.0481 66.1513 27.0481L102.528 56.1176C120.781 71.3583 118.123 64.139 117.002 46.5241L112.327 7.05882L127.57 45.8503C131.797 56.5668 139.418 57.8182 143.453 42.7059L160.969 0L156.165 46.877C154.212 62.9519 158.631 58.2674 174.002 44.0535L215.983 7.41176L181.111 50.9198C171.024 65.0053 163.531 72.3529 177.044 73.6684L225.365 71.262L183.608 81.4011C159.944 90.0963 176.82 95.262 198.883 103.893L226.582 116.278L191.518 109.251C165.26 101.936 158.215 106.556 176.788 127.861L209.226 164.278L172.337 135.914C164.459 128.599 150.626 122.567 151.266 134.92L155.429 180L141.531 134.663C138.329 122.824 134.679 122.406 128.851 141.112L116.778 177.786L119.404 144.642C120.205 124.107 117.162 123.209 103.873 134.118L66.0552 164.31L94.3307 127.957C103.105 117.722 106.403 110.246 95.0993 109.54L48.0268 117.144L80.4972 103.572C91.0004 98.8556 104.642 95.3262 79.5365 85.5722L29.582 65.1016L82.9629 76.5882Z" fill="white" fill-opacity="0.05"/>
</g>
<defs>
<clipPath id="clip0_1555_6732">
<rect width="256.5" height="180" fill="white"/>
</clipPath>
</defs>
</svg>
