<svg width="203" height="180" viewBox="0 0 203 180" fill="none" xmlns="http://www.w3.org/2000/svg">
<path d="M49.3242 85.8007C49.3242 80.207 49.3242 77.4102 50.7487 75.4496C51.2088 74.8164 51.7656 74.2595 52.3988 73.7995C54.3594 72.375 57.1562 72.375 62.7499 72.375H144.939C150.533 72.375 153.33 72.375 155.29 73.7995C155.924 74.2595 156.481 74.8164 156.941 75.4496C158.365 77.4102 158.365 80.207 158.365 85.8007V134.947C158.365 140.541 158.365 143.338 156.941 145.299C156.481 145.932 155.924 146.489 155.29 146.949C153.33 148.373 150.533 148.373 144.939 148.373H62.7499C57.1563 148.373 54.3594 148.373 52.3988 146.949C51.7656 146.489 51.2088 145.932 50.7487 145.299C49.3242 143.338 49.3242 140.541 49.3242 134.948V85.8007Z" fill="#2F2F2F"/>
<path d="M49.3242 138.461H158.365C158.365 140.518 158.365 141.546 158.17 142.397C157.509 145.273 155.264 147.518 152.388 148.178C151.538 148.374 150.509 148.374 148.452 148.374H59.237C57.18 148.374 56.1515 148.374 55.301 148.178C52.4253 147.518 50.1798 145.273 49.5195 142.397C49.3242 141.546 49.3242 140.518 49.3242 138.461Z" fill="#A9C59A"/>
<rect x="84.08" y="102.693" width="9.69631" height="18.6467" rx="4.84815" fill="white" stroke="#19171C" stroke-width="0.74587"/>
<rect x="98.9979" y="96.7284" width="9.69631" height="24.6137" rx="4.84815" fill="white" stroke="#19171C" stroke-width="0.74587"/>
<rect x="113.914" y="90.7597" width="9.69631" height="30.5807" rx="4.84815" fill="white" stroke="#19171C" stroke-width="0.74587"/>
<rect x="97.2383" y="148.375" width="13.2171" height="6.60853" fill="#A9C59A"/>
<rect x="87.3242" y="154.98" width="33.0427" height="3.30427" rx="1.65213" fill="#A9C59A"/>
<circle cx="53.2575" cy="65.5349" r="40.0198" transform="rotate(25 53.2575 65.5349)" fill="#FDD085"/>
<path d="M40.4273 59.877L63.6564 44.2539L66.6195 72.0906L49.9137 73.7253L40.4273 59.877Z" fill="#19171C"/>
<path d="M43.7598 86.9195L39.2695 62.3599L48.7577 76.2036L65.4691 74.577L43.7598 86.9195Z" fill="#19171C"/>
<path d="M35.2585 44.2713C40.8574 41.3082 50.1864 40.3992 47.273 34.6639C44.8713 29.936 29.544 40.3812 24.7577 49.5768C23.7748 51.4652 25.6102 52.2727 26.9897 50.6678C29.561 47.6766 31.2353 46.4004 35.2585 44.2713Z" fill="#19171C"/>
<ellipse cx="74.1712" cy="86.7367" rx="3.777" ry="6.97099" transform="rotate(45 74.1712 86.7367)" fill="#19171C"/>
<path d="M127.934 5.58467C128.36 4.80511 129.48 4.80511 129.906 5.58467L133.645 12.4205C133.748 12.6091 133.903 12.7642 134.092 12.8673L140.928 16.606C141.707 17.0323 141.707 18.152 140.928 18.5783L134.092 22.317C133.903 22.4201 133.748 22.5752 133.645 22.7638L129.906 29.5997C129.48 30.3792 128.36 30.3792 127.934 29.5997L124.195 22.7638C124.092 22.5752 123.937 22.4201 123.749 22.317L116.913 18.5783C116.133 18.152 116.133 17.0323 116.913 16.606L123.749 12.8673C123.937 12.7642 124.092 12.6091 124.195 12.4205L127.934 5.58467Z" fill="#D89453"/>
<path d="M157.909 29.895C158.185 29.3892 158.912 29.3892 159.188 29.895L161.615 34.3311C161.682 34.4535 161.782 34.5541 161.905 34.621L166.341 37.0472C166.846 37.3238 166.846 38.0504 166.341 38.3271L161.905 40.7532C161.782 40.8202 161.682 40.9208 161.615 41.0432L159.188 45.4792C158.912 45.9851 158.185 45.9851 157.909 45.4792L155.482 41.0432C155.415 40.9208 155.315 40.8202 155.192 40.7532L150.756 38.3271C150.25 38.0504 150.25 37.3238 150.756 37.0472L155.192 34.621C155.315 34.5541 155.415 34.4535 155.482 34.3311L157.909 29.895Z" fill="#D89453"/>
</svg>
