<svg width="126" height="126" viewBox="0 0 126 126" fill="none" xmlns="http://www.w3.org/2000/svg">
<g clip-path="url(#clip0_1605_5587)">
<path d="M126 63.0331C126 28.1764 97.8236 0 63.0331 0C28.2425 0 0 28.1764 0 63.0331C0 97.8898 28.1764 126.066 63.0331 126.066C97.8898 126.066 126 97.8236 126 63.0331Z" fill="#9391F7"/>
<path d="M51.26 66.0748C56.6836 65.215 60.3214 60.122 59.4615 54.6984C58.6017 49.2748 53.5088 45.637 48.0851 46.4969C42.6615 47.3567 39.0237 52.4496 39.8836 57.8732C40.8096 63.2969 45.9025 66.9347 51.26 66.0748ZM77.1875 66.0748C82.6111 65.215 86.2489 60.122 85.3891 54.6984C84.5292 49.2748 79.4363 45.637 74.0127 46.4969C68.5891 47.3567 64.9513 52.4496 65.8111 57.8732C66.671 63.2969 71.7639 66.9347 77.1875 66.0748Z" fill="white"/>
<path d="M62.6371 15.4102C35.7174 15.4102 13.8906 37.6338 13.8906 65.0165H26.3253C26.3253 44.4464 42.4639 27.8448 62.5709 27.8448C82.7442 27.8448 98.8166 44.5125 98.8166 65.0165H111.251C111.384 37.6338 89.5568 15.4102 62.6371 15.4102Z" fill="white"/>
</g>
<defs>
<clipPath id="clip0_1605_5587">
<rect width="126" height="126" fill="white"/>
</clipPath>
</defs>
</svg>
