<svg width="232" height="180" viewBox="0 0 232 180" fill="none" xmlns="http://www.w3.org/2000/svg">
<g clip-path="url(#clip0_1555_6730)">
<path d="M118 68.2685V121.702C118.567 121.702 119.167 121.602 119.633 121.335L119.767 121.269C126.167 117.769 137.333 114.102 144.567 113.135L145.533 113.002C148.733 112.602 151.333 109.602 151.333 106.402V66.1352C151.333 62.1685 148.1 59.1685 144.133 59.5019C137.133 60.0685 126.533 63.602 120.6 67.302L119.767 67.8018C119.267 68.1018 118.633 68.2685 118 68.2685Z" fill="#FDD085"/>
<path d="M84.666 66.1667V106.4C84.666 109.6 87.266 112.6 90.466 113L91.566 113.133C98.8327 114.1 110.033 117.8 116.433 121.333C116.866 121.6 117.399 121.7 117.999 121.7V68.2667C117.366 68.2667 116.733 68.1 116.233 67.8L115.666 67.4333C109.733 63.7 99.0993 60.1334 92.0993 59.5334H91.8993C87.9326 59.2 84.666 62.1667 84.666 66.1667Z" fill="#A9C59A"/>
<path d="M141.333 59.8672V74.1671C141.333 75.5005 139.867 76.3004 138.733 75.5671L134.667 72.8671L130.6 75.5671C129.5 76.3004 128 75.5005 128 74.1671V63.6671C132.367 61.9337 137.233 60.5339 141.333 59.8672Z" fill="#0D0D0D"/>
<path d="M27.2088 131.709C27.3716 132.434 27.53 133.481 27.6409 134.34C26.5517 134.359 25.5027 134.269 24.5172 134.112C24.482 133.406 24.3837 132.857 24.2145 132.139C25.1858 132.03 26.1978 131.89 27.2088 131.709Z" fill="white"/>
<path d="M30.6347 130.907C30.9564 131.865 31.1155 132.472 31.345 133.833C30.4403 134.073 29.5445 134.219 28.6689 134.29C28.5586 133.424 28.3941 132.317 28.2161 131.515C29.0402 131.344 29.8541 131.143 30.6347 130.907Z" fill="white"/>
<path d="M23.1851 132.243C23.343 132.901 23.4345 133.369 23.4769 133.917C22.8984 133.792 22.3474 133.647 21.8294 133.491C20.7745 133.172 19.6036 132.674 18.8821 132.349C19.6514 132.328 20.8534 132.423 21.9008 132.349C22.3135 132.32 22.7431 132.284 23.1851 132.243Z" fill="white"/>
<path d="M33.8516 130.011C33.9631 130.345 34.1189 130.737 34.2529 131.118C34.3919 131.512 34.5271 131.944 34.6249 132.417C33.9213 132.804 33.1572 133.172 32.3299 133.507C32.1088 132.222 31.941 131.58 31.6256 130.636C32.3169 130.467 33.073 130.251 33.8516 130.011Z" fill="white"/>
<path d="M37.1815 128.895C37.2803 129.04 37.3912 129.269 37.5088 129.571C37.5809 129.756 37.648 129.948 37.7135 130.134C37.7322 130.188 37.7513 130.241 37.77 130.294C37.1262 130.822 36.3894 131.359 35.5536 131.876C35.4548 131.475 35.337 131.109 35.2213 130.781C35.0627 130.33 34.9268 129.994 34.8289 129.701C35.6228 129.442 36.4216 129.166 37.1815 128.895Z" fill="white"/>
<path d="M40.3774 127.704C40.0609 128.09 39.6649 128.537 39.1842 129.016C39.0025 129.198 38.8085 129.383 38.6024 129.572C38.5595 129.452 38.514 129.327 38.4659 129.204C38.3841 128.994 38.2845 128.758 38.163 128.54C38.9973 128.234 39.7576 127.944 40.3774 127.704Z" fill="white"/>
<path fill-rule="evenodd" clip-rule="evenodd" d="M24.0131 90.6016C23.8719 90.7809 23.7577 90.9763 23.6676 91.1721C23.009 93.157 22.9521 95.2417 23.1178 97.3523C24.2288 95.9875 25.4087 94.7993 26.5888 93.5446C26.7225 93.4084 26.8537 93.2821 26.9891 93.1504C27.0081 93.3375 27.0327 93.5158 27.055 93.7029C27.274 95.2439 27.5163 96.8698 27.8553 98.3814C30.5772 98.8085 33.1337 99.6284 35.4376 100.768C36.0139 98.1606 38.3528 96.2089 41.1507 96.2089C44.3812 96.2089 47 98.8107 47 102.02C47 104.408 45.5499 106.46 43.4768 107.353C45.7101 110.364 47 113.916 47 117.721C47 128.588 36.4787 137.602 23.5 137.602C10.5213 137.602 0 128.588 0 117.721C0 113.969 1.25394 110.463 3.42996 107.48C1.93177 106.935 0.720475 105.8 0.0819758 104.357C1.2992 104.264 2.25764 103.254 2.25764 102.02C2.25764 100.787 1.29932 99.7768 0.0821762 99.6831C0.987717 97.6375 3.04523 96.2089 5.43886 96.2089C8.3037 96.2089 10.687 98.2552 11.19 100.957C12.5946 100.232 14.0974 99.6283 15.6774 99.1614C17.77 96.036 19.942 92.778 23.3308 90.815C23.553 90.7196 23.7872 90.6408 24.0131 90.6016ZM42.9864 125.559C40.3017 126.951 38.217 127.704 35.8144 128.54C34.6543 128.931 32.5306 129.623 30.9913 130.011C23.7053 131.849 20.4444 131.554 15.2515 131.445C16.1893 132.037 17.1096 132.641 18.1082 133.128C18.9298 133.529 20.1064 134.036 21.5312 134.466C23.3737 135.022 25.6465 135.453 28.1109 135.346C28.1648 135.358 28.2214 135.362 28.2792 135.355C28.3149 135.351 28.3493 135.343 28.3821 135.333C29.639 135.258 30.9431 135.042 32.263 134.63L32.2786 134.625L32.2937 134.619C33.4006 134.195 34.4046 133.714 35.3109 133.204C35.4162 133.181 35.5074 133.127 35.5761 133.053C36.7635 132.363 37.7764 131.626 38.6274 130.911C38.6899 130.876 38.7428 130.831 38.7846 130.777C39.1998 130.421 39.575 130.071 39.9112 129.736C40.7126 128.937 41.2947 128.22 41.6782 127.701C41.87 127.441 42.0123 127.23 42.1077 127.082C42.1554 127.008 42.1913 126.95 42.2159 126.909C42.2282 126.889 42.2376 126.873 42.2442 126.862C42.2475 126.856 42.2503 126.851 42.2522 126.848C42.2531 126.846 42.254 126.845 42.2546 126.844L42.2556 126.842L42.256 126.842L42.9864 125.559ZM8.04766 117.721C6.56779 121.289 6.9886 129.242 12.2168 129.242C15.1644 129.242 18.181 126.41 19.2749 123.634C12.7887 121.37 9.72125 119.399 8.04766 117.721ZM41.0915 115.349C40.7573 116.884 40.2582 118.388 39.4492 119.641C39.4153 119.628 39.3813 119.615 39.3474 119.602C38.3172 119.219 37.2583 118.939 36.196 118.853C36.1371 118.849 36.078 118.845 36.0196 118.842C36.0735 118.865 36.1274 118.888 36.1808 118.912C37.1361 119.351 37.9866 119.949 38.7559 120.605C38.7846 120.63 38.813 120.655 38.8415 120.68C38.2019 121.934 37.2202 123.065 36.1165 124.067C36.0499 124.127 35.9845 124.186 35.917 124.246C35.9963 124.203 36.0737 124.16 36.1525 124.116C37.5035 123.361 38.8156 122.428 39.8559 121.155C40.6356 121.54 41.3787 122.015 41.8796 122.745C41.9134 122.801 41.9446 122.86 41.9714 122.921C41.9644 122.855 41.9524 122.788 41.9367 122.722C41.6601 121.801 41.023 121.051 40.3191 120.382C40.986 118.737 41.1535 117.017 41.1529 115.355C41.1528 115.259 41.152 115.166 41.1509 115.07C41.1316 115.164 41.1119 115.255 41.0915 115.349Z" fill="white"/>
<path fill-rule="evenodd" clip-rule="evenodd" d="M213.846 23.7288C213.402 24.6865 212.955 25.6521 212.517 26.6196C213.789 26.4089 215.051 26.2081 216.305 25.9949C216.718 25.9284 217.125 25.8659 217.538 25.7993C217.362 26.1765 217.191 26.5496 217.015 26.9265C216.51 28.0148 216.002 29.113 215.507 30.2129C219.519 33.4292 222.324 38.073 223.141 43.3679C227.474 42.7002 231.35 43.5741 231.913 45.1675C232.623 47.1771 228.908 51.5034 223.387 53.4314C223.044 53.5512 222.703 53.6624 222.365 53.7646C221.897 54.9461 221.279 56.075 220.53 57.1404C220.378 57.4003 220.22 57.6567 220.057 57.9094C220.466 58.5325 220.772 59.26 220.932 60.0598C221.509 62.9378 221.486 65.8184 219.042 66.303C217.401 66.6281 215.086 65.791 213.566 64.3357C210.293 66.4034 206.409 67.6015 202.243 67.6016C198.094 67.6015 194.224 66.4131 190.958 64.3606C189.472 65.9649 187.097 66.9624 185.399 66.626C182.955 66.1415 182.84 63.077 183.417 60.199C183.593 59.3253 183.941 58.5379 184.409 57.8787C182.625 55.1012 181.479 51.8794 181.178 48.4172C181.176 48.4152 181.173 48.4127 181.171 48.4106C176.876 44.6904 175.082 39.4478 176.452 37.8835C177.319 36.8946 179.926 37.0737 182.812 38.2805C185.596 31.8521 191.512 27.0804 198.651 25.866C203.656 24.2076 208.456 23.5932 213.136 22.7971C213.549 22.7306 213.957 22.6682 214.37 22.6016C214.193 22.9787 214.022 23.3519 213.846 23.7288ZM201.079 26.7778C190.599 27.3771 182.286 36.0146 182.286 46.5825C182.286 51.8882 184.382 56.7074 187.795 60.2671C185.704 57.4061 184.9 53.7152 184.9 48.467C184.9 39.1601 192.145 29.1338 201.079 26.7778ZM190.652 40.8455C190.761 41.0225 190.883 41.23 190.988 41.4226C191.395 42.1708 191.803 42.921 192.218 43.6675C191.011 44.8607 191.133 46.9416 192.496 48.3279C193.441 49.2893 194.737 49.6647 195.851 49.4133C196.453 50.2481 197.072 51.0719 197.693 51.8918C197.83 52.0741 197.969 52.2661 198.096 52.4434C198.34 52.3371 198.586 52.231 198.831 52.1248C198.778 51.8935 198.708 51.6516 198.638 51.4231C198.307 50.3829 197.9 49.3867 197.432 48.4268C198.394 47.2091 198.204 45.3106 196.932 44.0168C196.062 43.1322 194.895 42.7436 193.846 42.8831C193.224 42.1399 192.55 41.4294 191.808 40.7605C191.629 40.6056 191.43 40.4372 191.229 40.2932C191.037 40.4773 190.844 40.6614 190.652 40.8455ZM213.349 44.1238C212.124 42.9333 210.021 43.0971 208.651 44.4893C207.282 45.8817 207.165 47.9752 208.39 49.1658C209.615 50.3563 211.718 50.1927 213.088 48.8003C214.457 47.4079 214.574 45.3142 213.349 44.1238ZM211.734 35.802C212.181 36.2903 212.725 37.0232 213.263 37.8213C212.617 38.3048 211.978 38.7814 211.331 39.2708L212.338 40.5869C212.942 40.1303 213.545 39.6798 214.158 39.2209C214.62 39.9816 215.022 40.7098 215.277 41.26L216.787 40.5671C216.492 39.9324 216.025 39.0894 215.49 38.2175C216.3 37.6058 217.142 36.9653 218.034 36.2627L217.001 34.967C216.155 35.633 215.36 36.2396 214.591 36.8208C214.027 35.9902 213.453 35.2236 212.965 34.6895L211.734 35.802Z" fill="#F7FFF7"/>
<ellipse cx="63" cy="59.1016" rx="7" ry="6.5" fill="white"/>
<ellipse cx="80" cy="41.1016" rx="5" ry="4.5" fill="white"/>
<path fill-rule="evenodd" clip-rule="evenodd" d="M79.9837 127.513C62.3112 109.84 59.6407 82.8765 72.0223 62.5586L54.0326 44.5689C32.1585 74.89 34.9925 117.594 62.4474 145.049C89.9019 172.503 132.606 175.338 162.927 153.463L144.937 135.474C124.62 147.855 97.6556 145.185 79.9837 127.513ZM172.049 35.4474C199.503 62.9019 202.338 105.606 180.463 135.927L162.474 117.937C174.855 97.6196 172.185 70.6556 154.513 52.9837C136.84 35.3112 109.877 32.6407 89.5586 45.0224L71.5689 27.0327C101.89 5.15836 144.594 7.99252 172.049 35.4474Z" fill="white" fill-opacity="0.05"/>
</g>
<defs>
<clipPath id="clip0_1555_6730">
<rect width="232" height="180" fill="white"/>
</clipPath>
</defs>
</svg>
