<svg width="230" height="180" viewBox="0 0 230 180" fill="none" xmlns="http://www.w3.org/2000/svg">
<g clip-path="url(#clip0_1555_6729)">
<path d="M167.563 180C143.302 138.46 86.698 138.46 62.4377 180C75.5676 138.46 66.5414 129.435 25 142.564C66.5414 118.305 66.5414 61.7043 25 37.4453C66.5414 50.5649 75.5676 41.5392 62.4377 0C86.698 41.5392 143.302 41.5392 167.563 0C154.442 41.5392 163.469 50.5649 205 37.4453C163.469 61.7043 163.469 118.305 205 142.564C163.469 129.435 154.442 138.46 167.563 180Z" fill="white" fill-opacity="0.05"/>
<path fill-rule="evenodd" clip-rule="evenodd" d="M18.8023 74.0452C17.3832 75.0705 7.92188 82.3503 7.92188 94.1925C7.92188 96.056 8.28893 97.9014 9.00207 99.6231C9.71523 101.345 10.7605 102.909 12.0782 104.227C13.396 105.544 14.9603 106.59 16.682 107.303C18.3541 107.996 20.1425 108.362 21.951 108.382C17.5471 108.296 14.0036 104.699 14.0036 100.275C14.0036 99.8745 14.0326 99.4808 14.0887 99.096C14.0911 99.0731 14.094 99.05 14.0974 99.0269C14.7774 94.4579 18.9811 90.579 21.014 88.943C21.6635 88.4204 22.5618 88.4204 23.2115 88.943C25.2443 90.579 29.4478 94.4579 30.1277 99.0269C30.1311 99.05 30.1342 99.0731 30.1364 99.096C30.1926 99.4808 30.2216 99.8745 30.2216 100.275C30.2216 104.699 26.6779 108.296 22.2742 108.382C24.0827 108.362 25.8711 107.996 27.5432 107.303C29.2649 106.59 30.8291 105.544 32.1468 104.227C33.4647 102.909 34.51 101.345 35.2232 99.6231C35.912 97.9598 36.2779 96.1809 36.3021 94.3819C36.3029 94.3586 36.3033 94.3353 36.3033 94.3117L36.3031 94.2477L36.3033 94.1927C36.2498 85.5959 30.4332 80.904 29.3727 80.1198C29.2734 80.0463 29.1412 80.0472 29.0419 80.1207C28.6166 80.4352 27.4323 81.3739 26.1604 82.9367C26.0152 83.1149 25.7302 83.0808 25.6321 82.873C23.2424 77.816 19.9319 74.7465 19.15 74.0649C19.049 73.9769 18.9108 73.9668 18.8023 74.0452Z" fill="#D89453"/>
<path fill-rule="evenodd" clip-rule="evenodd" d="M14.0977 99.0268C14.7777 94.4578 18.9814 90.5789 21.0143 88.9429C21.6638 88.4201 22.5621 88.4201 23.2118 88.9429C25.2446 90.5789 29.4481 94.4578 30.128 99.0268C30.1314 99.0499 30.1345 99.0728 30.1367 99.0957C30.1929 99.4807 30.2219 99.8744 30.2219 100.275C30.2219 104.753 26.5913 108.384 22.1129 108.384C17.6344 108.384 14.0039 104.753 14.0039 100.275C14.0039 99.8742 14.0329 99.4807 14.089 99.0957C14.0914 99.0728 14.0943 99.0499 14.0977 99.0268Z" fill="#1E1E1E"/>
<path d="M96.5721 53.3711C86.3938 53.3711 78.1426 61.6223 78.1426 71.8006H81.8285V75.4865H133.431V71.8006H137.117C137.117 61.6223 128.866 53.3711 118.687 53.3711H96.5721Z" fill="#FDD085"/>
<path d="M133.433 68.1172C143.611 68.1172 151.862 76.3686 151.862 86.5469V108.662C151.862 118.84 143.611 127.092 133.433 127.092H96.5742C86.396 127.092 78.1446 118.84 78.1445 108.662V71.8027C78.1446 69.7673 79.7946 68.1173 81.8301 68.1172H133.433ZM129.747 90.2324C125.676 90.2324 122.375 93.5331 122.375 97.6045C122.375 101.676 125.676 104.976 129.747 104.976C133.818 104.976 137.119 101.676 137.119 97.6045C137.119 93.5331 133.818 90.2325 129.747 90.2324Z" fill="#A9C59A"/>
<path d="M207.883 107.193V98.7158V94.4844" stroke="#1864BC" stroke-width="2.21154" stroke-miterlimit="10" stroke-linecap="round" stroke-linejoin="round"/>
<path d="M207.883 86.005V73.2812" stroke="#1864BC" stroke-width="2.21154" stroke-miterlimit="10" stroke-linecap="round" stroke-linejoin="round"/>
<path d="M212.827 76.8164L207.888 81.7555L202.949 76.8164" stroke="#1864BC" stroke-width="2.21154" stroke-miterlimit="10" stroke-linecap="round" stroke-linejoin="round"/>
<path d="M207.883 107.193V98.7158V94.4844" stroke="#1864BC" stroke-width="2.21154" stroke-miterlimit="10" stroke-linecap="round" stroke-linejoin="round"/>
<path d="M207.883 86.005V73.2812" stroke="#1864BC" stroke-width="2.21154" stroke-miterlimit="10" stroke-linecap="round" stroke-linejoin="round"/>
<path d="M202.949 103.654L207.888 98.7148L212.827 103.654" stroke="#1864BC" stroke-width="2.21154" stroke-miterlimit="10" stroke-linecap="round" stroke-linejoin="round"/>
<path d="M222.564 98.7139L215.222 94.4825L211.551 92.3594" stroke="#1864BC" stroke-width="2.21154" stroke-miterlimit="10" stroke-linecap="round" stroke-linejoin="round"/>
<path d="M204.213 88.1123L193.199 81.7578" stroke="#1864BC" stroke-width="2.21154" stroke-miterlimit="10" stroke-linecap="round" stroke-linejoin="round"/>
<path d="M198.728 79.2383L200.542 86.0056L193.789 87.8043" stroke="#1864BC" stroke-width="2.21154" stroke-miterlimit="10" stroke-linecap="round" stroke-linejoin="round"/>
<path d="M222.564 98.7139L215.222 94.4825L211.551 92.3594" stroke="#1864BC" stroke-width="2.21154" stroke-miterlimit="10" stroke-linecap="round" stroke-linejoin="round"/>
<path d="M204.213 88.1123L193.199 81.7578" stroke="#1864BC" stroke-width="2.21154" stroke-miterlimit="10" stroke-linecap="round" stroke-linejoin="round"/>
<path d="M217.04 101.238L215.227 94.4853L221.979 92.6719" stroke="#1864BC" stroke-width="2.21154" stroke-miterlimit="10" stroke-linecap="round" stroke-linejoin="round"/>
<path d="M204.213 92.3594L193.199 98.7139" stroke="#1864BC" stroke-width="2.21154" stroke-miterlimit="10" stroke-linecap="round" stroke-linejoin="round"/>
<path d="M211.551 88.1123L215.222 86.004L222.564 81.7578" stroke="#1864BC" stroke-width="2.21154" stroke-miterlimit="10" stroke-linecap="round" stroke-linejoin="round"/>
<path d="M217.04 79.2383L215.227 86.0056L221.979 87.8043" stroke="#1864BC" stroke-width="2.21154" stroke-miterlimit="10" stroke-linecap="round" stroke-linejoin="round"/>
<path d="M204.213 92.3594L193.199 98.7139" stroke="#1864BC" stroke-width="2.21154" stroke-miterlimit="10" stroke-linecap="round" stroke-linejoin="round"/>
<path d="M211.551 88.1123L215.222 86.004L222.564 81.7578" stroke="#1864BC" stroke-width="2.21154" stroke-miterlimit="10" stroke-linecap="round" stroke-linejoin="round"/>
<path d="M198.728 101.238L200.542 94.4853L193.789 92.6719" stroke="#1864BC" stroke-width="2.21154" stroke-miterlimit="10" stroke-linecap="round" stroke-linejoin="round"/>
<path d="M212.131 90.2346C212.135 91.2686 211.762 92.2686 211.083 93.0482C210.404 93.8278 209.464 94.3338 208.439 94.4719C207.415 94.61 206.375 94.3708 205.513 93.7988C204.652 93.2268 204.028 92.3611 203.758 91.363C203.487 90.365 203.589 89.3027 204.044 88.3742C204.499 87.4457 205.276 86.7143 206.231 86.3164C207.185 85.9185 208.251 85.8812 209.231 86.2115C210.211 86.5418 211.037 87.2171 211.556 88.1115C211.93 88.757 212.128 89.4889 212.131 90.2346Z" stroke="#1864BC" stroke-width="2.21154" stroke-miterlimit="10" stroke-linecap="round" stroke-linejoin="round"/>
</g>
<defs>
<clipPath id="clip0_1555_6729">
<rect width="230" height="180" fill="white"/>
</clipPath>
</defs>
</svg>
