<svg width="214" height="164" viewBox="0 0 214 164" fill="none" xmlns="http://www.w3.org/2000/svg">
<g clip-path="url(#clip0_1555_6589)">
<path d="M186.158 57.0933C204.354 88.6131 193.579 128.931 162.033 147.147C130.486 165.363 90.2055 154.569 71.9918 123.017L186.158 57.0933Z" fill="white" fill-opacity="0.05"/>
<path d="M153.2 0C171.395 31.5198 160.621 71.8379 129.074 90.0542C97.5274 108.271 57.229 97.4439 39.002 65.9425L153.2 0Z" fill="white" fill-opacity="0.05"/>
<path d="M66.0488 133.234C66.0488 121.101 75.8846 111.266 88.0175 111.266H133.42C145.552 111.266 155.388 121.101 155.388 133.234C155.388 145.367 145.553 155.203 133.42 155.203H88.0175C75.8846 155.203 66.0488 145.367 66.0488 133.234Z" fill="#1864BC"/>
<path d="M100.04 134.695C100.04 134.926 100.024 135.1 99.9935 135.215H95.6948C95.7564 135.685 95.9182 136.047 96.1801 136.301C96.442 136.556 96.7887 136.683 97.2201 136.683C97.7979 136.683 98.2178 136.463 98.4797 136.024H99.8895C99.7123 136.594 99.3926 137.041 98.9304 137.365C98.4682 137.688 97.9019 137.85 97.2317 137.85C96.6693 137.85 96.1686 137.719 95.7294 137.457C95.2903 137.187 94.9475 136.821 94.701 136.359C94.4545 135.897 94.3312 135.377 94.3312 134.799C94.3312 134.221 94.4545 133.701 94.701 133.239C94.9475 132.769 95.2865 132.403 95.7179 132.141C96.157 131.879 96.6539 131.749 97.2086 131.749C97.771 131.749 98.264 131.876 98.6877 132.13C99.1191 132.376 99.4504 132.723 99.6815 133.17C99.9203 133.617 100.04 134.125 100.04 134.695ZM97.2086 132.916C96.8311 132.916 96.5152 133.027 96.261 133.251C96.0068 133.466 95.8334 133.771 95.741 134.164H98.6762C98.5914 133.763 98.4258 133.455 98.1793 133.239C97.9327 133.023 97.6092 132.916 97.2086 132.916ZM101.044 137.734V136.521H102.524V133.066H101.276V131.864H103.506L103.656 132.65H103.714C103.822 132.403 103.983 132.211 104.199 132.072C104.423 131.933 104.684 131.864 104.985 131.864H106.684V133.147H104.985C104.245 133.147 103.876 133.517 103.876 134.256V136.521H105.817V137.734H101.044ZM110.427 137.85C109.88 137.85 109.387 137.719 108.948 137.457C108.516 137.187 108.177 136.821 107.931 136.359C107.692 135.897 107.573 135.377 107.573 134.799C107.573 134.221 107.692 133.701 107.931 133.239C108.177 132.769 108.516 132.403 108.948 132.141C109.387 131.879 109.88 131.749 110.427 131.749C111.143 131.749 111.744 131.953 112.23 132.361C112.723 132.769 113.035 133.316 113.166 134.002H111.825C111.733 133.694 111.556 133.451 111.294 133.274C111.039 133.089 110.747 132.997 110.415 132.997C109.976 132.997 109.614 133.162 109.329 133.493C109.052 133.825 108.913 134.26 108.913 134.799C108.913 135.338 109.052 135.774 109.329 136.105C109.614 136.436 109.98 136.602 110.427 136.602C110.758 136.602 111.051 136.509 111.305 136.325C111.559 136.132 111.733 135.874 111.825 135.55H113.166C113.027 136.251 112.715 136.81 112.23 137.226C111.744 137.642 111.143 137.85 110.427 137.85ZM114.471 137.734V136.452L117.51 133.505C117.733 133.282 117.899 133.058 118.007 132.835C118.122 132.604 118.18 132.349 118.18 132.072C118.18 131.725 118.076 131.448 117.868 131.24C117.668 131.024 117.394 130.917 117.048 130.917C116.693 130.917 116.397 131.047 116.158 131.309C115.919 131.564 115.8 131.895 115.8 132.303H114.355C114.355 131.764 114.467 131.286 114.69 130.87C114.922 130.447 115.237 130.119 115.638 129.888C116.046 129.649 116.512 129.53 117.036 129.53C117.552 129.53 118.007 129.638 118.4 129.853C118.793 130.061 119.093 130.358 119.301 130.743C119.517 131.121 119.625 131.556 119.625 132.049C119.625 132.542 119.517 132.989 119.301 133.389C119.085 133.79 118.777 134.183 118.377 134.568L116.609 136.29V136.348H119.682V137.734H114.471ZM123.669 137.85C123.16 137.85 122.698 137.696 122.282 137.388C121.874 137.08 121.546 136.613 121.3 135.989C121.053 135.358 120.93 134.591 120.93 133.69C120.93 132.789 121.053 132.026 121.3 131.402C121.546 130.77 121.874 130.3 122.282 129.992C122.698 129.684 123.16 129.53 123.669 129.53C124.177 129.53 124.635 129.684 125.044 129.992C125.46 130.3 125.791 130.77 126.037 131.402C126.284 132.026 126.407 132.789 126.407 133.69C126.407 134.591 126.284 135.358 126.037 135.989C125.791 136.613 125.46 137.08 125.044 137.388C124.635 137.696 124.177 137.85 123.669 137.85ZM123.669 136.463C124.046 136.463 124.354 136.244 124.593 135.805C124.84 135.365 124.963 134.661 124.963 133.69C124.963 132.719 124.84 132.014 124.593 131.575C124.354 131.136 124.046 130.917 123.669 130.917C123.291 130.917 122.979 131.136 122.733 131.575C122.494 132.014 122.374 132.719 122.374 133.69C122.374 134.661 122.494 135.365 122.733 135.805C122.979 136.244 123.291 136.463 123.669 136.463Z" fill="#F7FFF7"/>
<rect x="0.826172" y="121.363" width="84.9457" height="43.9374" rx="21.9687" transform="rotate(-26.261 0.826172 121.363)" fill="white"/>
<path d="M38.728 132.178C38.2927 132.393 37.9066 132.446 37.5695 132.337C37.2325 132.229 36.9651 131.974 36.7674 131.573L35.3255 128.651L33.9473 129.331L33.4155 128.253L34.7938 127.573L34.0166 125.998L35.2291 125.4L36.0063 126.975L37.8094 126.085L38.3412 127.163L36.538 128.053L37.8571 130.726C37.9253 130.865 38.0058 130.949 38.0987 130.981C38.1915 131.012 38.3071 130.994 38.4452 130.926L40.1551 130.082L40.7073 131.201L38.728 132.178ZM41.9503 130.588L41.4134 129.5L42.7399 128.846L41.2111 125.747L40.0919 126.299L39.5602 125.222L41.5603 124.235L42.0427 124.873L42.0945 124.847C42.0821 124.579 42.142 124.334 42.2741 124.114C42.4131 123.891 42.6173 123.713 42.8867 123.58L44.4101 122.829L44.9776 123.979L43.4543 124.731C42.791 125.058 42.623 125.553 42.9502 126.216L43.9524 128.247L45.6934 127.388L46.2302 128.477L41.9503 130.588ZM50.4156 126.54C49.9251 126.782 49.425 126.883 48.9153 126.843C48.4091 126.792 47.9432 126.613 47.5176 126.308C47.0989 125.999 46.7618 125.586 46.5061 125.067C46.2505 124.549 46.1275 124.03 46.1371 123.51C46.1503 122.979 46.2924 122.501 46.5634 122.076C46.8413 121.646 47.2255 121.311 47.716 121.069C48.3585 120.752 48.9877 120.669 49.6036 120.82C50.2264 120.968 50.7482 121.321 51.169 121.878L49.9669 122.471C49.7477 122.235 49.4814 122.096 49.1681 122.053C48.8583 122 48.5549 122.046 48.2578 122.193C47.864 122.387 47.6126 122.696 47.5036 123.119C47.4014 123.539 47.4696 123.991 47.7082 124.474C47.9468 124.958 48.2638 125.287 48.6591 125.461C49.0613 125.632 49.4627 125.619 49.8634 125.421C50.1605 125.275 50.3821 125.062 50.5283 124.784C50.6711 124.499 50.7123 124.191 50.6521 123.859L51.8542 123.266C52.04 123.956 52.0073 124.595 51.7562 125.183C51.505 125.771 51.0581 126.223 50.4156 126.54ZM53.991 124.648L53.4234 123.497L54.8451 119.51C54.9466 119.211 54.9963 118.937 54.9942 118.689C54.9955 118.431 54.9349 118.177 54.8121 117.928C54.6588 117.618 54.4428 117.415 54.1642 117.32C53.8891 117.215 53.5962 117.24 53.2853 117.393C52.9675 117.55 52.7594 117.799 52.6612 118.139C52.5595 118.473 52.599 118.823 52.7796 119.189L51.4842 119.828C51.2456 119.344 51.1345 118.867 51.1508 118.395C51.1705 117.913 51.3089 117.479 51.5659 117.095C51.8264 116.7 52.1916 116.386 52.6614 116.155C53.1242 115.926 53.5796 115.822 54.0274 115.842C54.4717 115.854 54.8724 115.987 55.2294 116.241C55.5898 116.484 55.8791 116.826 56.0973 117.269C56.3155 117.711 56.4164 118.159 56.4002 118.614C56.384 119.069 56.2815 119.557 56.0927 120.08L55.269 122.406L55.2946 122.458L58.0511 121.098L58.6647 122.342L53.991 124.648ZM62.2905 120.682C61.8345 120.907 61.3518 120.973 60.8424 120.881C60.3399 120.785 59.84 120.512 59.3429 120.061C58.8423 119.604 58.3926 118.971 57.9938 118.163C57.595 117.354 57.368 116.616 57.313 115.947C57.2546 115.272 57.3403 114.705 57.5701 114.248C57.8068 113.788 58.1532 113.445 58.6091 113.22C59.0651 112.995 59.5444 112.931 60.0469 113.026C60.5563 113.119 61.0613 113.393 61.5619 113.851C62.059 114.301 62.507 114.931 62.9058 115.739C63.3047 116.547 63.5333 117.289 63.5917 117.965C63.6467 118.634 63.5559 119.198 63.3191 119.659C63.0893 120.116 62.7464 120.457 62.2905 120.682ZM61.6769 119.438C62.0154 119.271 62.1946 118.938 62.2145 118.438C62.2413 117.935 62.04 117.249 61.6105 116.378C61.181 115.508 60.7585 114.93 60.3432 114.645C59.9347 114.357 59.5612 114.297 59.2227 114.464C58.8842 114.631 58.7015 114.966 58.6747 115.469C58.6549 115.968 58.8597 116.653 59.2891 117.524C59.7186 118.394 60.1376 118.973 60.5461 119.261C60.9614 119.546 61.3384 119.605 61.6769 119.438Z" fill="#19171C"/>
<rect x="147.396" y="65.7773" width="93.7331" height="43.9374" rx="21.9687" transform="rotate(45 147.396 65.7773)" fill="#FDD085"/>
<path d="M152.407 108.384C152.134 108.112 151.941 107.815 151.826 107.493C151.723 107.172 151.693 106.87 151.737 106.586L151.696 106.546L151.156 106.971L150.315 106.129L156.035 100.409L156.982 101.357L154.964 103.375L155.005 103.416C155.283 103.389 155.569 103.424 155.863 103.522C156.168 103.62 156.454 103.803 156.721 104.07C157.059 104.408 157.279 104.808 157.383 105.271C157.486 105.734 157.456 106.216 157.293 106.717C157.135 107.213 156.846 107.671 156.427 108.09C156.007 108.509 155.547 108.801 155.046 108.964C154.55 109.122 154.071 109.149 153.608 109.046C153.145 108.942 152.744 108.722 152.407 108.384ZM153.134 107.346C153.444 107.657 153.815 107.799 154.245 107.771C154.681 107.739 155.092 107.529 155.479 107.142C155.866 106.755 156.073 106.347 156.1 105.916C156.133 105.481 155.994 105.108 155.683 104.797C155.373 104.486 155 104.348 154.564 104.38C154.133 104.408 153.725 104.615 153.338 105.001C152.951 105.388 152.742 105.799 152.709 106.235C152.682 106.665 152.823 107.036 153.134 107.346ZM161.1 112.616C160.937 112.78 160.803 112.891 160.7 112.951L157.66 109.912C157.371 110.288 157.23 110.658 157.235 111.023C157.241 111.388 157.396 111.723 157.701 112.028C158.11 112.437 158.562 112.578 159.057 112.453L160.054 113.45C159.526 113.728 158.984 113.817 158.428 113.719C157.873 113.621 157.358 113.335 156.884 112.861C156.486 112.464 156.225 112.017 156.099 111.521C155.98 111.02 155.996 110.519 156.148 110.018C156.301 109.517 156.582 109.062 156.99 108.653C157.399 108.245 157.853 107.964 158.355 107.812C158.861 107.654 159.36 107.635 159.85 107.754C160.346 107.88 160.79 108.139 161.182 108.531C161.58 108.928 161.838 109.367 161.958 109.846C162.089 110.326 162.078 110.805 161.925 111.284C161.778 111.769 161.503 112.213 161.1 112.616ZM160.357 109.356C160.09 109.089 159.787 108.945 159.45 108.923C159.117 108.896 158.78 108.988 158.436 109.201L160.512 111.276C160.735 110.933 160.836 110.598 160.814 110.271C160.792 109.944 160.64 109.639 160.357 109.356ZM157.962 117.208L163.829 111.341L164.67 112.183L164.246 112.722L164.286 112.763C164.57 112.719 164.869 112.752 165.185 112.861C165.512 112.97 165.812 113.161 166.084 113.433C166.422 113.771 166.642 114.171 166.746 114.634C166.849 115.097 166.819 115.579 166.656 116.08C166.498 116.576 166.209 117.034 165.79 117.453C165.37 117.873 164.91 118.164 164.409 118.327C163.913 118.485 163.434 118.513 162.971 118.409C162.508 118.306 162.107 118.085 161.77 117.747C161.508 117.486 161.323 117.208 161.214 116.914C161.111 116.614 161.067 116.331 161.083 116.064L161.042 116.023L158.91 118.156L157.962 117.208ZM162.497 116.71C162.807 117.02 163.178 117.162 163.608 117.134C164.044 117.102 164.455 116.892 164.842 116.505C165.229 116.119 165.436 115.71 165.463 115.28C165.496 114.844 165.357 114.471 165.046 114.16C164.736 113.85 164.363 113.711 163.927 113.743C163.497 113.771 163.088 113.978 162.701 114.364C162.314 114.751 162.105 115.162 162.072 115.598C162.045 116.029 162.186 116.399 162.497 116.71ZM164.474 120.288L165.381 119.381L169.614 119.446C169.929 119.446 170.205 119.406 170.439 119.324C170.684 119.242 170.905 119.103 171.101 118.907C171.346 118.662 171.468 118.392 171.468 118.098C171.479 117.804 171.362 117.534 171.117 117.289C170.866 117.039 170.564 116.922 170.21 116.938C169.861 116.949 169.543 117.099 169.254 117.387L168.233 116.366C168.614 115.985 169.031 115.726 169.483 115.59C169.946 115.453 170.401 115.445 170.847 115.565C171.305 115.685 171.719 115.93 172.089 116.301C172.454 116.666 172.699 117.063 172.825 117.494C172.956 117.918 172.958 118.341 172.833 118.76C172.719 119.18 172.487 119.564 172.138 119.912C171.79 120.261 171.398 120.501 170.962 120.631C170.526 120.762 170.03 120.822 169.475 120.811L167.007 120.778L166.966 120.819L169.14 122.993L168.159 123.973L164.474 120.288ZM170.896 126.874C170.536 126.514 170.319 126.078 170.242 125.566C170.171 125.06 170.269 124.498 170.536 123.883C170.809 123.262 171.264 122.633 171.901 121.995C172.538 121.358 173.165 120.906 173.78 120.639C174.401 120.367 174.965 120.266 175.472 120.337C175.984 120.413 176.42 120.631 176.779 120.99C177.139 121.35 177.354 121.783 177.425 122.29C177.501 122.802 177.403 123.368 177.13 123.989C176.864 124.605 176.411 125.231 175.774 125.868C175.137 126.506 174.508 126.961 173.887 127.233C173.271 127.5 172.707 127.595 172.195 127.519C171.689 127.448 171.255 127.233 170.896 126.874ZM171.876 125.893C172.143 126.16 172.517 126.223 172.996 126.081C173.481 125.945 174.066 125.533 174.753 124.847C175.439 124.161 175.85 123.575 175.987 123.09C176.128 122.611 176.066 122.238 175.799 121.971C175.532 121.704 175.156 121.639 174.671 121.775C174.192 121.916 173.609 122.33 172.922 123.017C172.236 123.703 171.822 124.286 171.68 124.765C171.544 125.25 171.61 125.626 171.876 125.893Z" fill="#19171C"/>
</g>
<defs>
<clipPath id="clip0_1555_6589">
<rect width="212.85" height="163.125" fill="white" transform="translate(0.826172)"/>
</clipPath>
</defs>
</svg>
